<?xml version="1.0"?>
<svg xmlns:rdf="http://www.w3.org/1999/02/22-rdf-syntax-ns#" xmlns="http://www.w3.org/2000/svg" xmlns:cc="http://creativecommons.org/ns#" xmlns:dc="http://purl.org/dc/elements/1.1/" xmlns:svg="http://www.w3.org/2000/svg" id="svg2" viewBox="0 0 744 1052" version="1.0">
  <g id="layer1">
    <rect id="rect2465" height="1052" width="744" y="0" x="0" fill="#808080"/>
    <path id="text2396" d="m34.393 27.504h2.367v15.504h8.519v1.992h-10.886v-17.496m17.929 5.883c-1.156 0-2.07 0.453-2.742 1.359-0.672 0.899-1.008 2.133-1.008 3.703 0 1.571 0.332 2.809 0.996 3.715 0.672 0.899 1.59 1.348 2.754 1.348 1.149 0 2.059-0.453 2.731-1.36 0.672-0.906 1.008-2.14 1.008-3.703 0-1.554-0.336-2.785-1.008-3.691-0.672-0.914-1.582-1.371-2.731-1.371m0-1.828c1.875 0 3.348 0.609 4.418 1.828 1.071 1.218 1.606 2.906 1.606 5.062 0 2.149-0.535 3.836-1.606 5.063-1.07 1.218-2.543 1.828-4.418 1.828-1.883 0-3.359-0.61-4.429-1.828-1.063-1.227-1.594-2.914-1.594-5.063 0-2.156 0.531-3.844 1.594-5.062 1.07-1.219 2.546-1.828 4.429-1.828m18.223 6.726c0-1.562-0.324-2.773-0.973-3.633-0.64-0.859-1.543-1.289-2.707-1.289-1.156 0-2.058 0.43-2.707 1.289-0.64 0.86-0.961 2.071-0.961 3.633 0 1.555 0.321 2.762 0.961 3.621 0.649 0.86 1.551 1.289 2.707 1.289 1.164 0 2.067-0.429 2.707-1.289 0.649-0.859 0.973-2.066 0.973-3.621m2.156 5.086c0 2.234-0.496 3.895-1.488 4.981-0.992 1.093-2.512 1.64-4.559 1.64-0.758 0-1.472-0.058-2.144-0.176-0.672-0.109-1.324-0.281-1.957-0.515v-2.098c0.633 0.344 1.258 0.598 1.875 0.762s1.246 0.246 1.886 0.246c1.415 0 2.473-0.371 3.176-1.113 0.703-0.735 1.055-1.848 1.055-3.34v-1.067c-0.445 0.774-1.016 1.352-1.711 1.735s-1.527 0.574-2.496 0.574c-1.609 0-2.906-0.613-3.891-1.84-0.984-1.226-1.476-2.851-1.476-4.875 0-2.031 0.492-3.66 1.476-4.887 0.985-1.226 2.282-1.839 3.891-1.839 0.969 0 1.801 0.191 2.496 0.574s1.266 0.961 1.711 1.734v-1.992h2.156v11.496m9.528-9.984c-1.157 0-2.071 0.453-2.743 1.359-0.672 0.899-1.007 2.133-1.007 3.703 0 1.571 0.332 2.809 0.996 3.715 0.671 0.899 1.589 1.348 2.754 1.348 1.148 0 2.058-0.453 2.73-1.36 0.672-0.906 1.008-2.14 1.008-3.703 0-1.554-0.336-2.785-1.008-3.691-0.672-0.914-1.582-1.371-2.73-1.371m0-1.828c1.875 0 3.347 0.609 4.417 1.828 1.071 1.218 1.606 2.906 1.606 5.062 0 2.149-0.535 3.836-1.606 5.063-1.07 1.218-2.542 1.828-4.417 1.828-1.883 0-3.36-0.61-4.43-1.828-1.063-1.227-1.594-2.914-1.594-5.063 0-2.156 0.531-3.844 1.594-5.062 1.07-1.219 2.547-1.828 4.43-1.828m27.811-3.481v2.309c-0.9-0.43-1.75-0.75-2.55-0.961-0.79-0.211-1.56-0.317-2.3-0.317-1.29 0-2.29 0.25-2.99 0.75s-1.05 1.211-1.05 2.133c0 0.774 0.23 1.36 0.7 1.758 0.46 0.391 1.35 0.707 2.64 0.949l1.43 0.293c1.77 0.336 3.07 0.93 3.91 1.781 0.84 0.844 1.26 1.977 1.26 3.399 0 1.695-0.57 2.98-1.71 3.855-1.13 0.875-2.8 1.313-4.99 1.313-0.83 0-1.71-0.094-2.65-0.281-0.93-0.188-1.894-0.465-2.894-0.832v-2.438c0.961 0.539 1.904 0.945 2.824 1.219 0.92 0.273 1.83 0.41 2.72 0.41 1.35 0 2.39-0.266 3.13-0.797 0.73-0.531 1.1-1.289 1.1-2.273 0-0.86-0.27-1.532-0.8-2.016-0.52-0.484-1.38-0.848-2.59-1.09l-1.44-0.281c-1.76-0.352-3.04-0.902-3.831-1.652-0.789-0.75-1.184-1.793-1.184-3.129 0-1.547 0.543-2.766 1.625-3.657 1.1-0.89 2.6-1.335 4.52-1.335 0.82 0 1.65 0.074 2.5 0.222 0.86 0.149 1.73 0.371 2.62 0.668m15.56 9v7.922h-2.16v-7.852c0-1.242-0.24-2.171-0.72-2.789-0.49-0.617-1.21-0.925-2.18-0.925-1.17 0-2.08 0.371-2.76 1.113-0.67 0.742-1 1.754-1 3.035v7.418h-2.17v-18.234h2.17v7.148c0.51-0.789 1.12-1.379 1.81-1.769 0.7-0.391 1.51-0.586 2.43-0.586 1.51 0 2.65 0.468 3.42 1.406 0.77 0.93 1.16 2.301 1.16 4.113m15.55 0.82v1.055h-9.91c0.09 1.485 0.54 2.617 1.33 3.399 0.81 0.773 1.92 1.16 3.35 1.16 0.83 0 1.63-0.102 2.41-0.305s1.55-0.508 2.32-0.914v2.039c-0.78 0.328-1.57 0.578-2.38 0.75s-1.64 0.258-2.48 0.258c-2.09 0-3.75-0.61-4.98-1.828-1.21-1.219-1.82-2.867-1.82-4.946 0-2.148 0.57-3.851 1.73-5.109 1.16-1.266 2.73-1.898 4.7-1.898 1.77 0 3.16 0.57 4.18 1.711 1.03 1.132 1.55 2.675 1.55 4.628m-2.16-0.632c-0.01-1.18-0.34-2.121-0.99-2.825-0.64-0.703-1.49-1.054-2.56-1.054-1.2 0-2.16 0.34-2.89 1.019-0.72 0.68-1.13 1.637-1.24 2.871l7.68-0.011m16.93 0.632v1.055h-9.92c0.1 1.485 0.54 2.617 1.34 3.399 0.8 0.773 1.92 1.16 3.35 1.16 0.83 0 1.63-0.102 2.4-0.305 0.78-0.203 1.56-0.508 2.32-0.914v2.039c-0.77 0.328-1.56 0.578-2.38 0.75-0.81 0.172-1.63 0.258-2.47 0.258-2.09 0-3.75-0.61-4.98-1.828-1.22-1.219-1.83-2.867-1.83-4.946 0-2.148 0.58-3.851 1.74-5.109 1.16-1.266 2.73-1.898 4.7-1.898 1.76 0 3.16 0.57 4.18 1.711 1.03 1.132 1.55 2.675 1.55 4.628m-2.16-0.632c-0.02-1.18-0.35-2.121-1-2.825-0.64-0.703-1.49-1.054-2.55-1.054-1.2 0-2.17 0.34-2.9 1.019-0.71 0.68-1.13 1.637-1.24 2.871l7.69-0.011m7.83-9.118v3.727h4.44v1.676h-4.44v7.125c0 1.07 0.14 1.758 0.43 2.062 0.3 0.305 0.9 0.457 1.79 0.457h2.22v1.805h-2.22c-1.66 0-2.81-0.309-3.44-0.926-0.63-0.625-0.95-1.758-0.95-3.398v-7.125h-1.58v-1.676h1.58v-3.727h2.17" fill="#eee"/>
    <g id="g3218">
      <rect id="rect3172" rx="18" height="213" width="213" y="94" x="30" fill="#646464"/>
      <rect id="rect3174" rx="17" height="211" width="211" y="95" x="31" fill="#fff"/>
    </g>
    <g id="g3222">
      <rect id="rect3176" rx="18" height="213" width="213" y="94" x="266" fill="#515151"/>
      <rect id="rect3178" rx="17" height="211" width="211" y="95" x="267" fill="#666"/>
    </g>
    <g id="g3226">
      <rect id="rect3180" rx="18" height="213" width="213" y="94" x="501" fill="#292929"/>
      <rect id="rect3182" rx="17" height="211" width="211" y="95" x="502"/>
    </g>
    <path id="text3184" d="m38.721 320.14c0.247-0.44 0.543-0.77 0.886-0.98 0.344-0.22 0.749-0.32 1.214-0.32 0.627 0 1.11 0.22 1.45 0.66 0.341 0.44 0.511 1.06 0.511 1.87v3.63h-0.994v-3.6c0-0.58-0.102-1-0.306-1.28s-0.516-0.42-0.935-0.42c-0.512 0-0.916 0.17-1.214 0.51-0.297 0.34-0.445 0.8-0.445 1.39v3.4h-0.994v-3.6c0-0.58-0.102-1.01-0.306-1.28-0.204-0.28-0.519-0.42-0.945-0.42-0.505 0-0.906 0.17-1.204 0.51-0.297 0.34-0.445 0.81-0.445 1.39v3.4h-0.994v-6.02h0.994v0.94c0.225-0.37 0.496-0.64 0.811-0.82 0.315-0.17 0.689-0.26 1.122-0.26 0.437 0 0.808 0.11 1.112 0.33 0.308 0.22 0.535 0.55 0.682 0.97m8.771 1.84c-0.798 0-1.352 0.09-1.659 0.27-0.308 0.18-0.462 0.49-0.462 0.93 0 0.36 0.114 0.63 0.343 0.84 0.233 0.21 0.548 0.31 0.946 0.31 0.548 0 0.986-0.19 1.316-0.58 0.333-0.39 0.499-0.91 0.499-1.55v-0.22h-0.983m1.971-0.41v3.43h-0.988v-0.91c-0.225 0.36-0.507 0.63-0.843 0.81-0.337 0.17-0.749 0.26-1.236 0.26-0.615 0-1.106-0.18-1.471-0.52-0.362-0.35-0.543-0.81-0.543-1.39 0-0.68 0.226-1.19 0.677-1.53 0.455-0.35 1.132-0.52 2.03-0.52h1.386v-0.09c0-0.46-0.15-0.81-0.451-1.06-0.297-0.25-0.716-0.37-1.257-0.37-0.344 0-0.678 0.04-1.004 0.12s-0.639 0.21-0.94 0.37v-0.91c0.361-0.14 0.712-0.25 1.052-0.31 0.341-0.07 0.672-0.11 0.994-0.11 0.87 0 1.52 0.22 1.95 0.68 0.43 0.45 0.644 1.13 0.644 2.05m2.041-2.59h0.989v6.02h-0.989v-6.02m0-2.34h0.989v1.25h-0.989v-1.25m8.052 4.73v3.63h-0.989v-3.6c0-0.57-0.111-0.99-0.333-1.28-0.222-0.28-0.555-0.42-0.999-0.42-0.533 0-0.954 0.17-1.262 0.51s-0.462 0.8-0.462 1.39v3.4h-0.993v-6.02h0.993v0.94c0.237-0.36 0.514-0.63 0.833-0.81 0.322-0.18 0.693-0.27 1.112-0.27 0.691 0 1.213 0.21 1.568 0.64 0.354 0.43 0.532 1.06 0.532 1.89m5.484-4.73h0.988v8.36h-0.988v-8.36m5.381 3.04c-0.53 0-0.949 0.2-1.256 0.62-0.308 0.41-0.462 0.98-0.462 1.7s0.152 1.28 0.456 1.7c0.308 0.41 0.729 0.62 1.262 0.62 0.527 0 0.944-0.21 1.252-0.63 0.308-0.41 0.462-0.98 0.462-1.69 0-0.72-0.154-1.28-0.462-1.69-0.308-0.42-0.725-0.63-1.252-0.63m0-0.84c0.86 0 1.535 0.28 2.025 0.84 0.491 0.56 0.736 1.33 0.736 2.32 0 0.98-0.245 1.76-0.736 2.32-0.49 0.56-1.165 0.84-2.025 0.84-0.863 0-1.539-0.28-2.03-0.84-0.487-0.56-0.73-1.34-0.73-2.32 0-0.99 0.243-1.76 0.73-2.32 0.491-0.56 1.167-0.84 2.03-0.84m8.352 3.08c0-0.71-0.148-1.27-0.445-1.66-0.294-0.4-0.708-0.59-1.241-0.59-0.53 0-0.944 0.19-1.241 0.59-0.293 0.39-0.44 0.95-0.44 1.66s0.147 1.27 0.44 1.66c0.297 0.4 0.711 0.59 1.241 0.59 0.533 0 0.947-0.19 1.241-0.59 0.297-0.39 0.445-0.95 0.445-1.66m0.989 2.33c0 1.03-0.228 1.79-0.682 2.29-0.455 0.5-1.152 0.75-2.09 0.75-0.347 0-0.675-0.03-0.983-0.08s-0.607-0.13-0.897-0.24v-0.96c0.29 0.16 0.577 0.27 0.86 0.35 0.283 0.07 0.571 0.11 0.864 0.11 0.649 0 1.134-0.17 1.456-0.51s0.483-0.85 0.483-1.53v-0.49c-0.204 0.36-0.465 0.62-0.784 0.8-0.318 0.17-0.7 0.26-1.144 0.26-0.737 0-1.332-0.28-1.783-0.84-0.451-0.57-0.677-1.31-0.677-2.24s0.226-1.68 0.677-2.24 1.046-0.84 1.783-0.84c0.444 0 0.826 0.09 1.144 0.26 0.319 0.18 0.58 0.44 0.784 0.8v-0.92h0.989v5.27m4.366-4.57c-0.53 0-0.948 0.2-1.256 0.62-0.308 0.41-0.462 0.98-0.462 1.7s0.152 1.28 0.456 1.7c0.308 0.41 0.729 0.62 1.262 0.62 0.527 0 0.944-0.21 1.252-0.63 0.308-0.41 0.462-0.98 0.462-1.69 0-0.72-0.154-1.28-0.462-1.69-0.308-0.42-0.725-0.63-1.252-0.63m0-0.84c0.86 0 1.535 0.28 2.025 0.84 0.491 0.56 0.736 1.33 0.736 2.32 0 0.98-0.245 1.76-0.736 2.32-0.49 0.56-1.165 0.84-2.025 0.84-0.863 0-1.539-0.28-2.03-0.84-0.487-0.56-0.73-1.34-0.73-2.32 0-0.99 0.243-1.76 0.73-2.32 0.491-0.56 1.167-0.84 2.03-0.84m10.227 0.84c-0.53 0-0.949 0.2-1.257 0.62-0.308 0.41-0.462 0.98-0.462 1.7s0.152 1.28 0.457 1.7c0.308 0.41 0.728 0.62 1.262 0.62 0.526 0 0.943-0.21 1.251-0.63 0.308-0.41 0.462-0.98 0.462-1.69 0-0.72-0.154-1.28-0.462-1.69-0.308-0.42-0.725-0.63-1.251-0.63m0-0.84c0.859 0 1.534 0.28 2.025 0.84 0.49 0.56 0.736 1.33 0.736 2.32 0 0.98-0.246 1.76-0.736 2.32-0.491 0.56-1.166 0.84-2.025 0.84-0.863 0-1.54-0.28-2.03-0.84-0.487-0.56-0.731-1.34-0.731-2.32 0-0.99 0.244-1.76 0.731-2.32 0.49-0.56 1.167-0.84 2.03-0.84m9.395 2.53v3.63h-0.99v-3.6c0-0.57-0.11-0.99-0.33-1.28-0.22-0.28-0.56-0.42-1-0.42-0.53 0-0.96 0.17-1.26 0.51-0.311 0.34-0.465 0.8-0.465 1.39v3.4h-0.994v-6.02h0.994v0.94c0.236-0.36 0.515-0.63 0.835-0.81s0.69-0.27 1.11-0.27c0.69 0 1.21 0.21 1.57 0.64 0.35 0.43 0.53 1.06 0.53 1.89m4.91-2.39h0.99l1.23 4.7 1.23-4.7h1.17l1.23 4.7 1.23-4.7h0.99l-1.57 6.02h-1.17l-1.29-4.93-1.3 4.93h-1.17l-1.57-6.02m14.58 2.39v3.63h-0.99v-3.6c0-0.57-0.11-0.99-0.34-1.28-0.22-0.28-0.55-0.42-0.99-0.42-0.54 0-0.96 0.17-1.27 0.51s-0.46 0.8-0.46 1.39v3.4h-0.99v-8.36h0.99v3.28c0.24-0.36 0.51-0.63 0.83-0.81 0.33-0.18 0.7-0.27 1.12-0.27 0.69 0 1.21 0.21 1.56 0.64 0.36 0.43 0.54 1.06 0.54 1.89m1.98-2.39h0.99v6.02h-0.99v-6.02m0-2.34h0.99v1.25h-0.99v-1.25m4.03 0.64v1.7h2.03v0.77h-2.03v3.27c0 0.49 0.06 0.8 0.19 0.94 0.14 0.14 0.41 0.21 0.83 0.21h1.01v0.83h-1.01c-0.77 0-1.29-0.14-1.58-0.42-0.29-0.29-0.44-0.81-0.44-1.56v-3.27h-0.72v-0.77h0.72v-1.7h1m8.48 4.47v0.48h-4.54c0.04 0.68 0.25 1.2 0.61 1.56 0.37 0.35 0.88 0.53 1.54 0.53 0.38 0 0.74-0.05 1.1-0.14s0.71-0.23 1.06-0.42v0.93c-0.35 0.15-0.72 0.27-1.09 0.35s-0.75 0.12-1.13 0.12c-0.96 0-1.72-0.28-2.29-0.84-0.55-0.56-0.83-1.32-0.83-2.27 0-0.98 0.26-1.76 0.79-2.34 0.54-0.58 1.25-0.87 2.16-0.87 0.8 0 1.44 0.26 1.91 0.78 0.48 0.52 0.71 1.23 0.71 2.13m-0.99-0.29c0-0.55-0.16-0.98-0.45-1.3-0.3-0.32-0.69-0.48-1.17-0.48-0.56 0-1 0.15-1.33 0.46-0.33 0.32-0.52 0.75-0.57 1.32h3.52m10.43 0.54c0-0.73-0.15-1.3-0.45-1.71-0.29-0.42-0.7-0.62-1.23-0.62-0.52 0-0.93 0.2-1.23 0.62-0.3 0.41-0.45 0.98-0.45 1.71 0 0.72 0.15 1.3 0.45 1.71s0.71 0.62 1.23 0.62c0.53 0 0.94-0.21 1.23-0.62 0.3-0.41 0.45-0.99 0.45-1.71m-3.36-2.1c0.21-0.36 0.47-0.63 0.79-0.8 0.31-0.17 0.69-0.26 1.13-0.26 0.74 0 1.33 0.29 1.78 0.87 0.46 0.58 0.69 1.34 0.69 2.29 0 0.94-0.23 1.71-0.69 2.29-0.45 0.58-1.04 0.87-1.78 0.87-0.44 0-0.82-0.09-1.13-0.26-0.32-0.18-0.58-0.44-0.79-0.8v0.9h-0.99v-8.36h0.99v3.26m8.76 2.08c-0.8 0-1.35 0.09-1.66 0.27s-0.46 0.49-0.46 0.93c0 0.36 0.12 0.63 0.34 0.84 0.24 0.21 0.55 0.31 0.95 0.31 0.55 0 0.99-0.19 1.32-0.58s0.5-0.91 0.5-1.55v-0.22h-0.99m1.97-0.41v3.43h-0.98v-0.91c-0.23 0.36-0.51 0.63-0.85 0.81-0.33 0.17-0.75 0.26-1.23 0.26-0.62 0-1.11-0.18-1.48-0.52-0.36-0.35-0.54-0.81-0.54-1.39 0-0.68 0.23-1.19 0.68-1.53 0.45-0.35 1.13-0.52 2.03-0.52h1.39v-0.09c0-0.46-0.16-0.81-0.46-1.06-0.29-0.25-0.71-0.37-1.25-0.37-0.35 0-0.68 0.04-1.01 0.12-0.32 0.08-0.64 0.21-0.94 0.37v-0.91c0.36-0.14 0.72-0.25 1.06-0.31 0.34-0.07 0.67-0.11 0.99-0.11 0.87 0 1.52 0.22 1.95 0.68 0.43 0.45 0.64 1.13 0.64 2.05m6.37-2.35v0.92c-0.28-0.15-0.56-0.27-0.84-0.34-0.28-0.08-0.56-0.12-0.85-0.12-0.64 0-1.14 0.2-1.49 0.61-0.36 0.4-0.53 0.97-0.53 1.71 0 0.73 0.17 1.3 0.53 1.71 0.35 0.41 0.85 0.61 1.49 0.61 0.29 0 0.57-0.04 0.85-0.11 0.28-0.08 0.56-0.2 0.84-0.35v0.91c-0.27 0.13-0.56 0.22-0.86 0.29-0.29 0.06-0.6 0.1-0.94 0.1-0.9 0-1.62-0.29-2.15-0.86-0.54-0.57-0.81-1.34-0.81-2.3 0-0.98 0.27-1.76 0.81-2.32s1.28-0.84 2.22-0.84c0.3 0 0.6 0.03 0.89 0.1 0.29 0.06 0.57 0.15 0.84 0.28m1.7-2.58h0.99v4.94l2.95-2.6h1.26l-3.19 2.82 3.32 3.2h-1.28l-3.06-2.94v2.94h-0.99v-8.36m10.37 5.28c0-0.71-0.15-1.27-0.44-1.66-0.3-0.4-0.71-0.59-1.24-0.59s-0.95 0.19-1.24 0.59c-0.3 0.39-0.45 0.95-0.45 1.66s0.15 1.27 0.45 1.66c0.29 0.4 0.71 0.59 1.24 0.59s0.94-0.19 1.24-0.59c0.29-0.39 0.44-0.95 0.44-1.66m0.99 2.33c0 1.03-0.23 1.79-0.68 2.29-0.46 0.5-1.15 0.75-2.09 0.75-0.35 0-0.68-0.03-0.98-0.08-0.31-0.05-0.61-0.13-0.9-0.24v-0.96c0.29 0.16 0.58 0.27 0.86 0.35 0.28 0.07 0.57 0.11 0.86 0.11 0.65 0 1.14-0.17 1.46-0.51s0.48-0.85 0.48-1.53v-0.49c-0.2 0.36-0.46 0.62-0.78 0.8-0.32 0.17-0.7 0.26-1.15 0.26-0.73 0-1.33-0.28-1.78-0.84-0.45-0.57-0.68-1.31-0.68-2.24s0.23-1.68 0.68-2.24 1.05-0.84 1.78-0.84c0.45 0 0.83 0.09 1.15 0.26 0.32 0.18 0.58 0.44 0.78 0.8v-0.92h0.99v5.27m5.52-4.34c-0.11-0.07-0.23-0.11-0.36-0.14s-0.28-0.05-0.43-0.05c-0.56 0-0.99 0.18-1.29 0.55-0.3 0.36-0.45 0.88-0.45 1.56v3.17h-0.99v-6.02h0.99v0.94c0.21-0.37 0.48-0.64 0.81-0.81 0.34-0.18 0.74-0.27 1.22-0.27 0.07 0 0.14 0 0.22 0.02 0.09 0 0.18 0.02 0.28 0.03v1.02m3.14-0.23c-0.53 0-0.94 0.2-1.25 0.62-0.31 0.41-0.46 0.98-0.46 1.7s0.15 1.28 0.45 1.7c0.31 0.41 0.73 0.62 1.26 0.62s0.95-0.21 1.26-0.63c0.3-0.41 0.46-0.98 0.46-1.69 0-0.72-0.16-1.28-0.46-1.69-0.31-0.42-0.73-0.63-1.26-0.63m0-0.84c0.86 0 1.54 0.28 2.03 0.84s0.74 1.33 0.74 2.32c0 0.98-0.25 1.76-0.74 2.32s-1.17 0.84-2.03 0.84-1.54-0.28-2.03-0.84c-0.48-0.56-0.73-1.34-0.73-2.32 0-0.99 0.25-1.76 0.73-2.32 0.49-0.56 1.17-0.84 2.03-0.84m4.3 3.79v-3.65h0.98v3.61c0 0.57 0.12 1 0.34 1.28s0.55 0.43 1 0.43c0.53 0 0.95-0.17 1.26-0.51s0.47-0.81 0.47-1.39v-3.42h0.98v6.02h-0.98v-0.92c-0.24 0.36-0.52 0.63-0.84 0.81s-0.68 0.27-1.1 0.27c-0.69 0-1.22-0.22-1.58-0.65s-0.53-1.06-0.53-1.88m12.08-1.26v3.63h-0.99v-3.6c0-0.57-0.11-0.99-0.33-1.28-0.22-0.28-0.56-0.42-1-0.42-0.53 0-0.95 0.17-1.26 0.51s-0.46 0.8-0.46 1.39v3.4h-1v-6.02h1v0.94c0.23-0.36 0.51-0.63 0.83-0.81s0.69-0.27 1.11-0.27c0.69 0 1.21 0.21 1.57 0.64 0.35 0.43 0.53 1.06 0.53 1.89m5.94-1.47v-3.26h0.99v8.36h-0.99v-0.9c-0.21 0.36-0.47 0.62-0.79 0.8-0.31 0.17-0.69 0.26-1.14 0.26-0.72 0-1.32-0.29-1.77-0.87-0.46-0.58-0.69-1.35-0.69-2.29 0-0.95 0.23-1.71 0.69-2.29 0.45-0.58 1.05-0.87 1.77-0.87 0.45 0 0.83 0.09 1.14 0.26 0.32 0.17 0.58 0.44 0.79 0.8m-3.37 2.1c0 0.72 0.15 1.3 0.45 1.71s0.71 0.62 1.23 0.62c0.53 0 0.94-0.21 1.24-0.62s0.45-0.99 0.45-1.71c0-0.73-0.15-1.3-0.45-1.71-0.3-0.42-0.71-0.62-1.24-0.62-0.52 0-0.93 0.2-1.23 0.62-0.3 0.41-0.45 0.98-0.45 1.71"/>
    <path id="text3188" d="m274.72 320.14c0.25-0.44 0.54-0.77 0.89-0.98 0.34-0.22 0.75-0.32 1.21-0.32 0.63 0 1.11 0.22 1.45 0.66s0.51 1.06 0.51 1.87v3.63h-0.99v-3.6c0-0.58-0.1-1-0.31-1.28-0.2-0.28-0.51-0.42-0.93-0.42-0.51 0-0.92 0.17-1.22 0.51-0.29 0.34-0.44 0.8-0.44 1.39v3.4h-1v-3.6c0-0.58-0.1-1.01-0.3-1.28-0.21-0.28-0.52-0.42-0.95-0.42-0.5 0-0.9 0.17-1.2 0.51s-0.45 0.81-0.45 1.39v3.4h-0.99v-6.02h0.99v0.94c0.23-0.37 0.5-0.64 0.81-0.82 0.32-0.17 0.69-0.26 1.13-0.26 0.43 0 0.8 0.11 1.11 0.33s0.53 0.55 0.68 0.97m8.77 1.84c-0.8 0-1.35 0.09-1.66 0.27s-0.46 0.49-0.46 0.93c0 0.36 0.12 0.63 0.34 0.84 0.24 0.21 0.55 0.31 0.95 0.31 0.55 0 0.99-0.19 1.32-0.58s0.5-0.91 0.5-1.55v-0.22h-0.99m1.97-0.41v3.43h-0.98v-0.91c-0.23 0.36-0.51 0.63-0.85 0.81-0.33 0.17-0.75 0.26-1.23 0.26-0.62 0-1.11-0.18-1.48-0.52-0.36-0.35-0.54-0.81-0.54-1.39 0-0.68 0.23-1.19 0.68-1.53 0.45-0.35 1.13-0.52 2.03-0.52h1.39v-0.09c0-0.46-0.16-0.81-0.46-1.06-0.29-0.25-0.71-0.37-1.25-0.37-0.35 0-0.68 0.04-1.01 0.12-0.32 0.08-0.64 0.21-0.94 0.37v-0.91c0.36-0.14 0.72-0.25 1.06-0.31 0.34-0.07 0.67-0.11 0.99-0.11 0.87 0 1.52 0.22 1.95 0.68 0.43 0.45 0.64 1.13 0.64 2.05m2.04-2.59h0.99v6.02h-0.99v-6.02m0-2.34h0.99v1.25h-0.99v-1.25m8.06 4.73v3.63h-0.99v-3.6c0-0.57-0.11-0.99-0.34-1.28-0.22-0.28-0.55-0.42-0.99-0.42-0.54 0-0.96 0.17-1.27 0.51-0.3 0.34-0.46 0.8-0.46 1.39v3.4h-0.99v-6.02h0.99v0.94c0.24-0.36 0.52-0.63 0.83-0.81 0.33-0.18 0.7-0.27 1.12-0.27 0.69 0 1.21 0.21 1.56 0.64 0.36 0.43 0.54 1.06 0.54 1.89m5.48-4.73h0.99v8.36h-0.99v-8.36m5.38 3.04c-0.53 0-0.95 0.2-1.26 0.62-0.3 0.41-0.46 0.98-0.46 1.7s0.15 1.28 0.46 1.7c0.31 0.41 0.73 0.62 1.26 0.62s0.94-0.21 1.25-0.63c0.31-0.41 0.46-0.98 0.46-1.69 0-0.72-0.15-1.28-0.46-1.69-0.31-0.42-0.72-0.63-1.25-0.63m0-0.84c0.86 0 1.54 0.28 2.03 0.84s0.73 1.33 0.73 2.32c0 0.98-0.24 1.76-0.73 2.32s-1.17 0.84-2.03 0.84-1.54-0.28-2.03-0.84-0.73-1.34-0.73-2.32c0-0.99 0.24-1.76 0.73-2.32s1.17-0.84 2.03-0.84m8.35 3.08c0-0.71-0.15-1.27-0.44-1.66-0.3-0.4-0.71-0.59-1.24-0.59s-0.95 0.19-1.24 0.59c-0.3 0.39-0.44 0.95-0.44 1.66s0.14 1.27 0.44 1.66c0.29 0.4 0.71 0.59 1.24 0.59s0.94-0.19 1.24-0.59c0.29-0.39 0.44-0.95 0.44-1.66m0.99 2.33c0 1.03-0.23 1.79-0.68 2.29-0.46 0.5-1.15 0.75-2.09 0.75-0.35 0-0.67-0.03-0.98-0.08s-0.61-0.13-0.9-0.24v-0.96c0.29 0.16 0.58 0.27 0.86 0.35 0.28 0.07 0.57 0.11 0.86 0.11 0.65 0 1.14-0.17 1.46-0.51s0.48-0.85 0.48-1.53v-0.49c-0.2 0.36-0.46 0.62-0.78 0.8-0.32 0.17-0.7 0.26-1.14 0.26-0.74 0-1.34-0.28-1.79-0.84-0.45-0.57-0.67-1.31-0.67-2.24s0.22-1.68 0.67-2.24 1.05-0.84 1.79-0.84c0.44 0 0.82 0.09 1.14 0.26 0.32 0.18 0.58 0.44 0.78 0.8v-0.92h0.99v5.27m4.37-4.57c-0.53 0-0.95 0.2-1.26 0.62-0.31 0.41-0.46 0.98-0.46 1.7s0.15 1.28 0.46 1.7c0.3 0.41 0.72 0.62 1.26 0.62 0.52 0 0.94-0.21 1.25-0.63 0.31-0.41 0.46-0.98 0.46-1.69 0-0.72-0.15-1.28-0.46-1.69-0.31-0.42-0.73-0.63-1.25-0.63m0-0.84c0.86 0 1.53 0.28 2.02 0.84s0.74 1.33 0.74 2.32c0 0.98-0.25 1.76-0.74 2.32s-1.16 0.84-2.02 0.84-1.54-0.28-2.03-0.84-0.73-1.34-0.73-2.32c0-0.99 0.24-1.76 0.73-2.32s1.17-0.84 2.03-0.84m10.22 0.84c-0.52 0-0.94 0.2-1.25 0.62-0.31 0.41-0.46 0.98-0.46 1.7s0.15 1.28 0.45 1.7c0.31 0.41 0.73 0.62 1.26 0.62s0.95-0.21 1.26-0.63c0.3-0.41 0.46-0.98 0.46-1.69 0-0.72-0.16-1.28-0.46-1.69-0.31-0.42-0.73-0.63-1.26-0.63m0-0.84c0.86 0 1.54 0.28 2.03 0.84s0.74 1.33 0.74 2.32c0 0.98-0.25 1.76-0.74 2.32s-1.17 0.84-2.03 0.84-1.53-0.28-2.03-0.84c-0.48-0.56-0.73-1.34-0.73-2.32 0-0.99 0.25-1.76 0.73-2.32 0.5-0.56 1.17-0.84 2.03-0.84m9.4 2.53v3.63h-0.99v-3.6c0-0.57-0.11-0.99-0.33-1.28-0.22-0.28-0.56-0.42-1-0.42-0.53 0-0.96 0.17-1.26 0.51-0.31 0.34-0.47 0.8-0.47 1.39v3.4h-0.99v-6.02h0.99v0.94c0.24-0.36 0.52-0.63 0.84-0.81s0.69-0.27 1.11-0.27c0.69 0 1.21 0.21 1.57 0.64 0.35 0.43 0.53 1.06 0.53 1.89m9.44-1.47v-3.26h0.99v8.36h-0.99v-0.9c-0.21 0.36-0.47 0.62-0.79 0.8-0.31 0.17-0.69 0.26-1.14 0.26-0.72 0-1.32-0.29-1.77-0.87-0.46-0.58-0.69-1.35-0.69-2.29 0-0.95 0.23-1.71 0.69-2.29 0.45-0.58 1.05-0.87 1.77-0.87 0.45 0 0.83 0.09 1.14 0.26 0.32 0.17 0.58 0.44 0.79 0.8m-3.37 2.1c0 0.72 0.15 1.3 0.45 1.71s0.71 0.62 1.23 0.62c0.53 0 0.94-0.21 1.24-0.62s0.45-0.99 0.45-1.71c0-0.73-0.15-1.3-0.45-1.71-0.3-0.42-0.71-0.62-1.24-0.62-0.52 0-0.93 0.2-1.23 0.62-0.3 0.41-0.45 0.98-0.45 1.71m9.13-0.02c-0.8 0-1.35 0.09-1.66 0.27s-0.46 0.49-0.46 0.93c0 0.36 0.11 0.63 0.34 0.84s0.55 0.31 0.95 0.31c0.54 0 0.98-0.19 1.31-0.58 0.34-0.39 0.5-0.91 0.5-1.55v-0.22h-0.98m1.97-0.41v3.43h-0.99v-0.91c-0.22 0.36-0.5 0.63-0.84 0.81-0.34 0.17-0.75 0.26-1.24 0.26-0.61 0-1.1-0.18-1.47-0.52-0.36-0.35-0.54-0.81-0.54-1.39 0-0.68 0.22-1.19 0.68-1.53 0.45-0.35 1.13-0.52 2.03-0.52h1.38v-0.09c0-0.46-0.15-0.81-0.45-1.06s-0.72-0.37-1.26-0.37c-0.34 0-0.67 0.04-1 0.12s-0.64 0.21-0.94 0.37v-0.91c0.36-0.14 0.71-0.25 1.05-0.31 0.34-0.07 0.67-0.11 1-0.11 0.87 0 1.52 0.22 1.95 0.68 0.43 0.45 0.64 1.13 0.64 2.05m5.53-1.66c-0.11-0.07-0.24-0.11-0.37-0.14s-0.27-0.05-0.43-0.05c-0.56 0-0.99 0.18-1.29 0.55-0.29 0.36-0.44 0.88-0.44 1.56v3.17h-1v-6.02h1v0.94c0.21-0.37 0.48-0.64 0.81-0.81 0.33-0.18 0.74-0.27 1.21-0.27 0.07 0 0.15 0 0.23 0.02 0.08 0 0.17 0.02 0.27 0.03l0.01 1.02m1.01-3.27h0.99v4.94l2.95-2.6h1.26l-3.19 2.82 3.33 3.2h-1.29l-3.06-2.94v2.94h-0.99v-8.36m14.24 5.36c0-0.73-0.15-1.3-0.46-1.71-0.29-0.42-0.7-0.62-1.23-0.62-0.52 0-0.93 0.2-1.23 0.62-0.3 0.41-0.45 0.98-0.45 1.71 0 0.72 0.15 1.3 0.45 1.71s0.71 0.62 1.23 0.62c0.53 0 0.94-0.21 1.23-0.62 0.31-0.41 0.46-0.99 0.46-1.71m-3.37-2.1c0.21-0.36 0.47-0.63 0.79-0.8s0.7-0.26 1.14-0.26c0.73 0 1.32 0.29 1.77 0.87 0.46 0.58 0.69 1.34 0.69 2.29 0 0.94-0.23 1.71-0.69 2.29-0.45 0.58-1.04 0.87-1.77 0.87-0.44 0-0.82-0.09-1.14-0.26-0.32-0.18-0.58-0.44-0.79-0.8v0.9h-0.99v-8.36h0.99v3.26m8.76 2.08c-0.79 0-1.35 0.09-1.66 0.27-0.3 0.18-0.46 0.49-0.46 0.93 0 0.36 0.12 0.63 0.35 0.84s0.54 0.31 0.94 0.31c0.55 0 0.99-0.19 1.32-0.58s0.5-0.91 0.5-1.55v-0.22h-0.99m1.97-0.41v3.43h-0.98v-0.91c-0.23 0.36-0.51 0.63-0.85 0.81-0.33 0.17-0.74 0.26-1.23 0.26-0.62 0-1.11-0.18-1.47-0.52-0.37-0.35-0.55-0.81-0.55-1.39 0-0.68 0.23-1.19 0.68-1.53 0.46-0.35 1.13-0.52 2.03-0.52h1.39v-0.09c0-0.46-0.15-0.81-0.45-1.06s-0.72-0.37-1.26-0.37c-0.35 0-0.68 0.04-1.01 0.12-0.32 0.08-0.63 0.21-0.94 0.37v-0.91c0.37-0.14 0.72-0.25 1.06-0.31 0.34-0.07 0.67-0.11 0.99-0.11 0.87 0 1.52 0.22 1.95 0.68 0.43 0.45 0.64 1.13 0.64 2.05m6.38-2.35v0.92c-0.28-0.15-0.57-0.27-0.85-0.34-0.28-0.08-0.56-0.12-0.85-0.12-0.64 0-1.14 0.2-1.49 0.61-0.35 0.4-0.53 0.97-0.53 1.71 0 0.73 0.18 1.3 0.53 1.71s0.85 0.61 1.49 0.61c0.29 0 0.57-0.04 0.85-0.11 0.28-0.08 0.57-0.2 0.85-0.35v0.91c-0.28 0.13-0.57 0.22-0.86 0.29-0.3 0.06-0.61 0.1-0.94 0.1-0.91 0-1.63-0.29-2.16-0.86-0.54-0.57-0.8-1.34-0.8-2.3 0-0.98 0.26-1.76 0.8-2.32s1.28-0.84 2.22-0.84c0.3 0 0.6 0.03 0.89 0.1 0.29 0.06 0.57 0.15 0.85 0.28m1.69-2.58h0.99v4.94l2.95-2.6h1.26l-3.19 2.82 3.33 3.2h-1.29l-3.06-2.94v2.94h-0.99v-8.36m10.37 5.28c0-0.71-0.14-1.27-0.44-1.66-0.3-0.4-0.71-0.59-1.24-0.59s-0.95 0.19-1.24 0.59c-0.3 0.39-0.44 0.95-0.44 1.66s0.14 1.27 0.44 1.66c0.29 0.4 0.71 0.59 1.24 0.59s0.94-0.19 1.24-0.59c0.3-0.39 0.44-0.95 0.44-1.66m0.99 2.33c0 1.03-0.23 1.79-0.68 2.29s-1.15 0.75-2.09 0.75c-0.35 0-0.67-0.03-0.98-0.08s-0.61-0.13-0.9-0.24v-0.96c0.29 0.16 0.58 0.27 0.86 0.35 0.28 0.07 0.57 0.11 0.86 0.11 0.65 0 1.14-0.17 1.46-0.51s0.48-0.85 0.48-1.53v-0.49c-0.2 0.36-0.46 0.62-0.78 0.8-0.32 0.17-0.7 0.26-1.14 0.26-0.74 0-1.34-0.28-1.79-0.84-0.45-0.57-0.67-1.31-0.67-2.24s0.22-1.68 0.67-2.24 1.05-0.84 1.79-0.84c0.44 0 0.82 0.09 1.14 0.26 0.32 0.18 0.58 0.44 0.78 0.8v-0.92h0.99v5.27m5.52-4.34c-0.11-0.07-0.23-0.11-0.36-0.14s-0.27-0.05-0.43-0.05c-0.56 0-0.99 0.18-1.29 0.55-0.3 0.36-0.45 0.88-0.45 1.56v3.17h-0.99v-6.02h0.99v0.94c0.21-0.37 0.48-0.64 0.81-0.81 0.34-0.18 0.74-0.27 1.22-0.27 0.07 0 0.14 0 0.22 0.02 0.09 0 0.18 0.02 0.28 0.03v1.02m3.15-0.23c-0.53 0-0.95 0.2-1.26 0.62-0.31 0.41-0.46 0.98-0.46 1.7s0.15 1.28 0.45 1.7c0.31 0.41 0.73 0.62 1.27 0.62 0.52 0 0.94-0.21 1.25-0.63 0.31-0.41 0.46-0.98 0.46-1.69 0-0.72-0.15-1.28-0.46-1.69-0.31-0.42-0.73-0.63-1.25-0.63m0-0.84c0.86 0 1.53 0.28 2.02 0.84s0.74 1.33 0.74 2.32c0 0.98-0.25 1.76-0.74 2.32s-1.16 0.84-2.02 0.84c-0.87 0-1.54-0.28-2.03-0.84s-0.73-1.34-0.73-2.32c0-0.99 0.24-1.76 0.73-2.32s1.16-0.84 2.03-0.84m4.29 3.79v-3.65h0.99v3.61c0 0.57 0.11 1 0.33 1.28s0.55 0.43 1 0.43c0.53 0 0.95-0.17 1.26-0.51s0.47-0.81 0.47-1.39v-3.42h0.99v6.02h-0.99v-0.92c-0.24 0.36-0.52 0.63-0.84 0.81s-0.68 0.27-1.1 0.27c-0.69 0-1.22-0.22-1.58-0.65-0.35-0.43-0.53-1.06-0.53-1.88m12.08-1.26v3.63h-0.99v-3.6c0-0.57-0.11-0.99-0.33-1.28-0.22-0.28-0.55-0.42-1-0.42-0.53 0-0.95 0.17-1.26 0.51s-0.46 0.8-0.46 1.39v3.4h-1v-6.02h1v0.94c0.23-0.36 0.51-0.63 0.83-0.81s0.69-0.27 1.11-0.27c0.69 0 1.22 0.21 1.57 0.64s0.53 1.06 0.53 1.89m5.94-1.47v-3.26h0.99v8.36h-0.99v-0.9c-0.21 0.36-0.47 0.62-0.79 0.8-0.31 0.17-0.69 0.26-1.14 0.26-0.72 0-1.32-0.29-1.77-0.87-0.46-0.58-0.69-1.35-0.69-2.29 0-0.95 0.23-1.71 0.69-2.29 0.45-0.58 1.05-0.87 1.77-0.87 0.45 0 0.83 0.09 1.14 0.26 0.32 0.17 0.58 0.44 0.79 0.8m-3.37 2.1c0 0.72 0.15 1.3 0.45 1.71s0.71 0.62 1.24 0.62c0.52 0 0.93-0.21 1.23-0.62s0.45-0.99 0.45-1.71c0-0.73-0.15-1.3-0.45-1.71-0.3-0.42-0.71-0.62-1.23-0.62-0.53 0-0.94 0.2-1.24 0.62-0.3 0.41-0.45 0.98-0.45 1.71"/>
    <path id="text3192" d="m510.36 322c0-0.73-0.15-1.3-0.46-1.71-0.29-0.42-0.7-0.62-1.23-0.62-0.52 0-0.93 0.2-1.23 0.62-0.3 0.41-0.45 0.98-0.45 1.71 0 0.72 0.15 1.3 0.45 1.71s0.71 0.62 1.23 0.62c0.53 0 0.94-0.21 1.23-0.62 0.31-0.41 0.46-0.99 0.46-1.71m-3.37-2.1c0.21-0.36 0.47-0.63 0.79-0.8s0.7-0.26 1.14-0.26c0.73 0 1.32 0.29 1.77 0.87 0.46 0.58 0.69 1.34 0.69 2.29 0 0.94-0.23 1.71-0.69 2.29-0.45 0.58-1.04 0.87-1.77 0.87-0.44 0-0.82-0.09-1.14-0.26-0.32-0.18-0.58-0.44-0.79-0.8v0.9h-0.99v-8.36h0.99v3.26m8.76 2.08c-0.79 0-1.35 0.09-1.66 0.27-0.3 0.18-0.46 0.49-0.46 0.93 0 0.36 0.12 0.63 0.35 0.84s0.54 0.31 0.94 0.31c0.55 0 0.99-0.19 1.32-0.58s0.5-0.91 0.5-1.55v-0.22h-0.99m1.98-0.41v3.43h-0.99v-0.91c-0.23 0.36-0.51 0.63-0.85 0.81-0.33 0.17-0.74 0.26-1.23 0.26-0.62 0-1.11-0.18-1.47-0.52-0.37-0.35-0.55-0.81-0.55-1.39 0-0.68 0.23-1.19 0.68-1.53 0.46-0.35 1.13-0.52 2.03-0.52h1.39v-0.09c0-0.46-0.15-0.81-0.45-1.06s-0.72-0.37-1.26-0.37c-0.34 0-0.68 0.04-1.01 0.12-0.32 0.08-0.63 0.21-0.94 0.37v-0.91c0.37-0.14 0.72-0.25 1.06-0.31 0.34-0.07 0.67-0.11 0.99-0.11 0.87 0 1.52 0.22 1.95 0.68 0.43 0.45 0.65 1.13 0.65 2.05m5.87-2.41v0.94c-0.28-0.15-0.57-0.25-0.87-0.33-0.3-0.07-0.61-0.1-0.93-0.1-0.49 0-0.86 0.07-1.11 0.22-0.24 0.15-0.37 0.38-0.37 0.68 0 0.23 0.09 0.41 0.27 0.54 0.17 0.13 0.53 0.25 1.06 0.37l0.33 0.08c0.71 0.15 1.2 0.36 1.5 0.64 0.29 0.27 0.44 0.65 0.44 1.14 0 0.56-0.22 1-0.66 1.33-0.44 0.32-1.05 0.49-1.82 0.49-0.33 0-0.66-0.04-1.01-0.1s-0.72-0.15-1.1-0.28v-1.02c0.36 0.19 0.72 0.33 1.08 0.43 0.35 0.09 0.7 0.14 1.05 0.14 0.46 0 0.82-0.08 1.07-0.24s0.38-0.38 0.38-0.67c0-0.27-0.09-0.48-0.28-0.62-0.17-0.15-0.57-0.28-1.18-0.42l-0.35-0.08c-0.61-0.13-1.05-0.32-1.32-0.59-0.28-0.27-0.41-0.63-0.41-1.1 0-0.56 0.2-1 0.6-1.31s0.97-0.46 1.71-0.46c0.36 0 0.71 0.03 1.03 0.08s0.62 0.13 0.89 0.24m7.05 2.59v0.48h-4.55c0.05 0.68 0.25 1.2 0.62 1.56 0.37 0.35 0.88 0.53 1.53 0.53 0.38 0 0.75-0.05 1.1-0.14 0.36-0.09 0.72-0.23 1.07-0.42v0.93c-0.36 0.15-0.72 0.27-1.09 0.35-0.38 0.08-0.75 0.12-1.14 0.12-0.96 0-1.72-0.28-2.28-0.84s-0.84-1.32-0.84-2.27c0-0.98 0.27-1.76 0.8-2.34s1.25-0.87 2.15-0.87c0.81 0 1.45 0.26 1.92 0.78s0.71 1.23 0.71 2.13m-0.99-0.29c-0.01-0.55-0.16-0.98-0.46-1.3-0.29-0.32-0.68-0.48-1.17-0.48-0.55 0-0.99 0.15-1.32 0.46-0.33 0.32-0.52 0.75-0.57 1.32h3.52m6.11-4.82h0.99v8.36h-0.99v-8.36m5.38 3.04c-0.53 0-0.95 0.2-1.25 0.62-0.31 0.41-0.46 0.98-0.46 1.7s0.15 1.28 0.45 1.7c0.31 0.41 0.73 0.62 1.26 0.62s0.95-0.21 1.26-0.63c0.3-0.41 0.46-0.98 0.46-1.69 0-0.72-0.16-1.28-0.46-1.69-0.31-0.42-0.73-0.63-1.26-0.63m0-0.84c0.86 0 1.54 0.28 2.03 0.84s0.73 1.33 0.73 2.32c0 0.98-0.24 1.76-0.73 2.32s-1.17 0.84-2.03 0.84-1.54-0.28-2.03-0.84c-0.48-0.56-0.73-1.34-0.73-2.32 0-0.99 0.25-1.76 0.73-2.32 0.49-0.56 1.17-0.84 2.03-0.84m8.36 3.08c0-0.71-0.15-1.27-0.45-1.66-0.29-0.4-0.71-0.59-1.24-0.59s-0.94 0.19-1.24 0.59c-0.3 0.39-0.44 0.95-0.44 1.66s0.14 1.27 0.44 1.66c0.3 0.4 0.71 0.59 1.24 0.59s0.95-0.19 1.24-0.59c0.3-0.39 0.45-0.95 0.45-1.66m0.98 2.33c0 1.03-0.22 1.79-0.68 2.29-0.45 0.5-1.15 0.75-2.09 0.75-0.34 0-0.67-0.03-0.98-0.08s-0.61-0.13-0.9-0.24v-0.96c0.29 0.16 0.58 0.27 0.86 0.35 0.29 0.07 0.57 0.11 0.87 0.11 0.65 0 1.13-0.17 1.45-0.51s0.49-0.85 0.49-1.53v-0.49c-0.21 0.36-0.47 0.62-0.79 0.8-0.32 0.17-0.7 0.26-1.14 0.26-0.74 0-1.33-0.28-1.79-0.84-0.45-0.57-0.67-1.31-0.67-2.24s0.22-1.68 0.67-2.24c0.46-0.56 1.05-0.84 1.79-0.84 0.44 0 0.82 0.09 1.14 0.26 0.32 0.18 0.58 0.44 0.79 0.8v-0.92h0.98v5.27m4.37-4.57c-0.53 0-0.95 0.2-1.26 0.62-0.3 0.41-0.46 0.98-0.46 1.7s0.15 1.28 0.46 1.7c0.31 0.41 0.73 0.62 1.26 0.62s0.94-0.21 1.25-0.63c0.31-0.41 0.46-0.98 0.46-1.69 0-0.72-0.15-1.28-0.46-1.69-0.31-0.42-0.72-0.63-1.25-0.63m0-0.84c0.86 0 1.54 0.28 2.03 0.84s0.73 1.33 0.73 2.32c0 0.98-0.24 1.76-0.73 2.32s-1.17 0.84-2.03 0.84-1.54-0.28-2.03-0.84-0.73-1.34-0.73-2.32c0-0.99 0.24-1.76 0.73-2.32s1.17-0.84 2.03-0.84m10.23 0.84c-0.53 0-0.95 0.2-1.26 0.62-0.31 0.41-0.46 0.98-0.46 1.7s0.15 1.28 0.46 1.7c0.3 0.41 0.72 0.62 1.26 0.62 0.52 0 0.94-0.21 1.25-0.63 0.31-0.41 0.46-0.98 0.46-1.69 0-0.72-0.15-1.28-0.46-1.69-0.31-0.42-0.73-0.63-1.25-0.63m0-0.84c0.86 0 1.53 0.28 2.02 0.84s0.74 1.33 0.74 2.32c0 0.98-0.25 1.76-0.74 2.32s-1.16 0.84-2.02 0.84c-0.87 0-1.54-0.28-2.03-0.84s-0.73-1.34-0.73-2.32c0-0.99 0.24-1.76 0.73-2.32s1.16-0.84 2.03-0.84m9.39 2.53v3.63h-0.99v-3.6c0-0.57-0.11-0.99-0.33-1.28-0.22-0.28-0.55-0.42-1-0.42-0.53 0-0.95 0.17-1.26 0.51s-0.46 0.8-0.46 1.39v3.4h-1v-6.02h1v0.94c0.23-0.36 0.51-0.63 0.83-0.81s0.69-0.27 1.11-0.27c0.69 0 1.22 0.21 1.57 0.64s0.53 1.06 0.53 1.89m9.8 0.63c0-0.73-0.15-1.3-0.45-1.71-0.29-0.42-0.7-0.62-1.23-0.62-0.52 0-0.93 0.2-1.23 0.62-0.3 0.41-0.45 0.98-0.45 1.71 0 0.72 0.15 1.3 0.45 1.71s0.71 0.62 1.23 0.62c0.53 0 0.94-0.21 1.23-0.62 0.3-0.41 0.45-0.99 0.45-1.71m-3.36-2.1c0.21-0.36 0.47-0.63 0.79-0.8 0.31-0.17 0.69-0.26 1.13-0.26 0.73 0 1.33 0.29 1.78 0.87 0.46 0.58 0.69 1.34 0.69 2.29 0 0.94-0.23 1.71-0.69 2.29-0.45 0.58-1.05 0.87-1.78 0.87-0.44 0-0.82-0.09-1.13-0.26-0.32-0.18-0.58-0.44-0.79-0.8v0.9h-0.99v-8.36h0.99v3.26m6.03-3.26h0.99v8.36h-0.99v-8.36m5.78 5.34c-0.8 0-1.35 0.09-1.66 0.27s-0.46 0.49-0.46 0.93c0 0.36 0.12 0.63 0.34 0.84 0.24 0.21 0.55 0.31 0.95 0.31 0.55 0 0.99-0.19 1.32-0.58s0.5-0.91 0.5-1.55v-0.22h-0.99m1.97-0.41v3.43h-0.98v-0.91c-0.23 0.36-0.51 0.63-0.85 0.81-0.33 0.17-0.75 0.26-1.23 0.26-0.62 0-1.11-0.18-1.47-0.52-0.37-0.35-0.55-0.81-0.55-1.39 0-0.68 0.23-1.19 0.68-1.53 0.45-0.35 1.13-0.52 2.03-0.52h1.39v-0.09c0-0.46-0.16-0.81-0.46-1.06-0.29-0.25-0.71-0.37-1.25-0.37-0.35 0-0.68 0.04-1.01 0.12-0.32 0.08-0.64 0.21-0.94 0.37v-0.91c0.36-0.14 0.72-0.25 1.06-0.31 0.34-0.07 0.67-0.11 0.99-0.11 0.87 0 1.52 0.22 1.95 0.68 0.43 0.45 0.64 1.13 0.64 2.05m6.37-2.35v0.92c-0.28-0.15-0.56-0.27-0.84-0.34-0.28-0.08-0.56-0.12-0.85-0.12-0.64 0-1.14 0.2-1.49 0.61-0.36 0.4-0.53 0.97-0.53 1.71 0 0.73 0.17 1.3 0.53 1.71 0.35 0.41 0.85 0.61 1.49 0.61 0.29 0 0.57-0.04 0.85-0.11 0.28-0.08 0.56-0.2 0.84-0.35v0.91c-0.27 0.13-0.56 0.22-0.86 0.29-0.29 0.06-0.6 0.1-0.94 0.1-0.9 0-1.62-0.29-2.15-0.86-0.54-0.57-0.81-1.34-0.81-2.3 0-0.98 0.27-1.76 0.81-2.32s1.28-0.84 2.22-0.84c0.3 0 0.6 0.03 0.89 0.1 0.29 0.06 0.57 0.15 0.84 0.28m1.7-2.58h0.99v4.94l2.95-2.6h1.26l-3.19 2.82 3.32 3.2h-1.28l-3.06-2.94v2.94h-0.99v-8.36m14.23 5.36c0-0.73-0.15-1.3-0.45-1.71-0.29-0.42-0.7-0.62-1.23-0.62-0.52 0-0.93 0.2-1.23 0.62-0.3 0.41-0.45 0.98-0.45 1.71 0 0.72 0.15 1.3 0.45 1.71s0.71 0.62 1.23 0.62c0.53 0 0.94-0.21 1.23-0.62 0.3-0.41 0.45-0.99 0.45-1.71m-3.36-2.1c0.21-0.36 0.47-0.63 0.79-0.8 0.31-0.17 0.69-0.26 1.13-0.26 0.74 0 1.33 0.29 1.78 0.87 0.46 0.58 0.69 1.34 0.69 2.29 0 0.94-0.23 1.71-0.69 2.29-0.45 0.58-1.04 0.87-1.78 0.87-0.44 0-0.82-0.09-1.13-0.26-0.32-0.18-0.58-0.44-0.79-0.8v0.9h-0.99v-8.36h0.99v3.26m8.76 2.08c-0.8 0-1.35 0.09-1.66 0.27s-0.46 0.49-0.46 0.93c0 0.36 0.12 0.63 0.34 0.84 0.24 0.21 0.55 0.31 0.95 0.31 0.55 0 0.99-0.19 1.32-0.58s0.5-0.91 0.5-1.55v-0.22h-0.99m1.97-0.41v3.43h-0.98v-0.91c-0.23 0.36-0.51 0.63-0.85 0.81-0.33 0.17-0.75 0.26-1.23 0.26-0.62 0-1.11-0.18-1.48-0.52-0.36-0.35-0.54-0.81-0.54-1.39 0-0.68 0.23-1.19 0.68-1.53 0.45-0.35 1.13-0.52 2.03-0.52h1.39v-0.09c0-0.46-0.16-0.81-0.46-1.06-0.29-0.25-0.71-0.37-1.25-0.37-0.35 0-0.68 0.04-1.01 0.12-0.32 0.08-0.64 0.21-0.94 0.37v-0.91c0.36-0.14 0.72-0.25 1.06-0.31 0.34-0.07 0.67-0.11 0.99-0.11 0.87 0 1.52 0.22 1.95 0.68 0.43 0.45 0.64 1.13 0.64 2.05m6.37-2.35v0.92c-0.28-0.15-0.56-0.27-0.84-0.34-0.28-0.08-0.56-0.12-0.85-0.12-0.64 0-1.14 0.2-1.49 0.61-0.36 0.4-0.53 0.97-0.53 1.71 0 0.73 0.17 1.3 0.53 1.71 0.35 0.41 0.85 0.61 1.49 0.61 0.29 0 0.57-0.04 0.85-0.11 0.28-0.08 0.56-0.2 0.84-0.35v0.91c-0.27 0.13-0.56 0.22-0.86 0.29-0.29 0.06-0.6 0.1-0.94 0.1-0.9 0-1.62-0.29-2.15-0.86-0.54-0.57-0.81-1.34-0.81-2.3 0-0.98 0.27-1.76 0.81-2.32s1.28-0.84 2.22-0.84c0.3 0 0.6 0.03 0.89 0.1 0.29 0.06 0.57 0.15 0.84 0.28m1.7-2.58h0.99v4.94l2.95-2.6h1.26l-3.19 2.82 3.32 3.2h-1.28l-3.06-2.94v2.94h-0.99v-8.36m10.37 5.28c0-0.71-0.15-1.27-0.44-1.66-0.3-0.4-0.71-0.59-1.24-0.59s-0.95 0.19-1.24 0.59c-0.3 0.39-0.45 0.95-0.45 1.66s0.15 1.27 0.45 1.66c0.29 0.4 0.71 0.59 1.24 0.59s0.94-0.19 1.24-0.59c0.29-0.39 0.44-0.95 0.44-1.66m0.99 2.33c0 1.03-0.23 1.79-0.68 2.29-0.46 0.5-1.15 0.75-2.09 0.75-0.35 0-0.68-0.03-0.98-0.08-0.31-0.05-0.61-0.13-0.9-0.24v-0.96c0.29 0.16 0.58 0.27 0.86 0.35 0.28 0.07 0.57 0.11 0.86 0.11 0.65 0 1.14-0.17 1.46-0.51s0.48-0.85 0.48-1.53v-0.49c-0.2 0.36-0.46 0.62-0.78 0.8-0.32 0.17-0.7 0.26-1.15 0.26-0.73 0-1.33-0.28-1.78-0.84-0.45-0.57-0.68-1.31-0.68-2.24s0.23-1.68 0.68-2.24 1.05-0.84 1.78-0.84c0.45 0 0.83 0.09 1.15 0.26 0.32 0.18 0.58 0.44 0.78 0.8v-0.92h0.99v5.27m5.52-4.34c-0.11-0.07-0.23-0.11-0.36-0.14s-0.28-0.05-0.43-0.05c-0.56 0-0.99 0.18-1.29 0.55-0.3 0.36-0.45 0.88-0.45 1.56v3.17h-0.99v-6.02h0.99v0.94c0.21-0.37 0.48-0.64 0.81-0.81 0.34-0.18 0.74-0.27 1.22-0.27 0.07 0 0.14 0 0.22 0.02 0.09 0 0.18 0.02 0.28 0.03v1.02m3.14-0.23c-0.53 0-0.94 0.2-1.25 0.62-0.31 0.41-0.46 0.98-0.46 1.7s0.15 1.28 0.45 1.7c0.31 0.41 0.73 0.62 1.26 0.62s0.95-0.21 1.26-0.63c0.3-0.41 0.46-0.98 0.46-1.69 0-0.72-0.16-1.28-0.46-1.69-0.31-0.42-0.73-0.63-1.26-0.63m0-0.84c0.86 0 1.54 0.28 2.03 0.84s0.74 1.33 0.74 2.32c0 0.98-0.25 1.76-0.74 2.32s-1.17 0.84-2.03 0.84-1.54-0.28-2.03-0.84c-0.48-0.56-0.73-1.34-0.73-2.32 0-0.99 0.25-1.76 0.73-2.32 0.49-0.56 1.17-0.84 2.03-0.84m4.3 3.79v-3.65h0.98v3.61c0 0.57 0.12 1 0.34 1.28s0.55 0.43 1 0.43c0.53 0 0.95-0.17 1.26-0.51s0.47-0.81 0.47-1.39v-3.42h0.98v6.02h-0.98v-0.92c-0.24 0.36-0.52 0.63-0.84 0.81s-0.68 0.27-1.1 0.27c-0.69 0-1.22-0.22-1.58-0.65s-0.53-1.06-0.53-1.88m12.08-1.26v3.63h-0.99v-3.6c0-0.57-0.11-0.99-0.33-1.28-0.22-0.28-0.56-0.42-1-0.42-0.53 0-0.95 0.17-1.26 0.51s-0.46 0.8-0.46 1.39v3.4h-1v-6.02h1v0.94c0.23-0.36 0.51-0.63 0.83-0.81s0.69-0.27 1.11-0.27c0.69 0 1.21 0.21 1.57 0.64 0.35 0.43 0.53 1.06 0.53 1.89m5.94-1.47v-3.26h0.99v8.36h-0.99v-0.9c-0.21 0.36-0.47 0.62-0.79 0.8-0.31 0.17-0.69 0.26-1.14 0.26-0.72 0-1.32-0.29-1.77-0.87-0.46-0.58-0.69-1.35-0.69-2.29 0-0.95 0.23-1.71 0.69-2.29 0.45-0.58 1.05-0.87 1.77-0.87 0.45 0 0.83 0.09 1.14 0.26 0.32 0.17 0.58 0.44 0.79 0.8m-3.37 2.1c0 0.72 0.15 1.3 0.45 1.71s0.71 0.62 1.23 0.62c0.53 0 0.94-0.21 1.24-0.62s0.45-0.99 0.45-1.71c0-0.73-0.15-1.3-0.45-1.71-0.3-0.42-0.71-0.62-1.24-0.62-0.52 0-0.93 0.2-1.23 0.62-0.3 0.41-0.45 0.98-0.45 1.71"/>
    <g id="g3230">
      <rect id="rect3196" rx="14" height="157" width="157" y="353" x="30" fill="#626262"/>
      <rect id="rect3198" rx="13" height="155" width="155" y="354" x="31" fill="#b3b3b3"/>
    </g>
    <g id="g3234" transform="translate(176)">
      <rect id="rect3236" rx="14" height="157" width="157" y="353" x="30" fill="#626262"/>
      <rect id="rect3238" rx="13" height="155" width="155" y="354" x="31" fill="#b3b3b3"/>
    </g>
    <g id="g3240" transform="translate(351)">
      <rect id="rect3242" rx="14" height="157" width="157" y="353" x="30" fill="#626262"/>
      <rect id="rect3244" rx="13" height="155" width="155" y="354" x="31" fill="#b3b3b3"/>
    </g>
    <g id="g3246" transform="translate(527)">
      <rect id="rect3248" rx="14" height="157" width="157" y="353" x="30" fill="#626262"/>
      <rect id="rect3250" rx="13" height="155" width="155" y="354" x="31" fill="#b3b3b3"/>
    </g>
    <g id="g3252" transform="translate(0,201)">
      <g id="g3260" transform="translate(176)">
        <rect id="rect3254" rx="14" height="157" width="157" y="353" x="30" fill="#626262"/>
        <rect id="rect3256" rx="13" height="155" width="155" y="354" x="31" fill="#808080"/>
      </g>
    </g>
    <g id="g3264" transform="translate(-176,201)">
      <g id="g3266" transform="translate(176)">
        <rect id="rect3268" rx="14" height="157" width="157" y="353" x="30" fill="#626262"/>
        <rect id="rect3270" rx="13" height="155" width="155" y="354" x="31" fill="#b3b3b3"/>
      </g>
    </g>
    <rect id="rect2435" rx="14" ry="14" height="248" width="683" y="756" x="30" fill="#626262"/>
    <rect id="rect2437" rx="13" ry="13" height="246" width="681" y="757" x="31" fill="#b3b3b3"/>
    <path id="text2444" d="m34.111 527.09h3.786v0.91h-5.091v-0.91c0.411-0.43 0.972-1 1.681-1.72 0.712-0.72 1.16-1.18 1.343-1.39 0.347-0.39 0.589-0.72 0.725-0.99 0.139-0.27 0.209-0.53 0.209-0.8 0-0.42-0.15-0.77-0.451-1.04-0.297-0.27-0.686-0.4-1.166-0.4-0.34 0-0.7 0.06-1.079 0.18-0.376 0.11-0.779 0.29-1.209 0.53v-1.09c0.437-0.18 0.845-0.31 1.225-0.4s0.727-0.13 1.042-0.13c0.831 0 1.493 0.2 1.987 0.62 0.494 0.41 0.741 0.97 0.741 1.66 0 0.33-0.062 0.65-0.187 0.94-0.122 0.3-0.346 0.64-0.672 1.05-0.089 0.1-0.374 0.4-0.854 0.9-0.48 0.49-1.156 1.19-2.03 2.08m13.761-4.87v0.92c-0.28-0.15-0.561-0.27-0.844-0.34-0.279-0.08-0.562-0.12-0.848-0.12-0.641 0-1.139 0.2-1.493 0.61-0.355 0.4-0.532 0.97-0.532 1.71 0 0.73 0.177 1.3 0.532 1.71 0.354 0.41 0.852 0.61 1.493 0.61 0.286 0 0.569-0.04 0.848-0.11 0.283-0.08 0.564-0.2 0.844-0.35v0.91c-0.276 0.13-0.563 0.22-0.86 0.29-0.293 0.06-0.607 0.1-0.94 0.1-0.906 0-1.625-0.29-2.159-0.86-0.533-0.57-0.8-1.34-0.8-2.3 0-0.98 0.268-1.76 0.805-2.32 0.541-0.56 1.281-0.84 2.219-0.84 0.304 0 0.601 0.03 0.891 0.1 0.29 0.06 0.571 0.15 0.844 0.28m4.06 0.46c-0.53 0-0.949 0.2-1.257 0.62-0.308 0.41-0.462 0.98-0.462 1.7s0.153 1.28 0.457 1.7c0.308 0.41 0.729 0.62 1.262 0.62 0.526 0 0.944-0.21 1.252-0.63 0.308-0.41 0.462-0.98 0.462-1.69 0-0.72-0.154-1.28-0.462-1.69-0.308-0.42-0.726-0.63-1.252-0.63m0-0.84c0.86 0 1.534 0.28 2.025 0.84s0.736 1.33 0.736 2.32c0 0.98-0.245 1.76-0.736 2.32s-1.165 0.84-2.025 0.84c-0.863 0-1.54-0.28-2.03-0.84-0.487-0.56-0.731-1.34-0.731-2.32 0-0.99 0.244-1.76 0.731-2.32 0.49-0.56 1.167-0.84 2.03-0.84m4.394-2.2h0.988v8.36h-0.988v-8.36m5.382 3.04c-0.53 0-0.949 0.2-1.257 0.62-0.308 0.41-0.462 0.98-0.462 1.7s0.152 1.28 0.456 1.7c0.308 0.41 0.729 0.62 1.263 0.62 0.526 0 0.943-0.21 1.251-0.63 0.308-0.41 0.462-0.98 0.462-1.69 0-0.72-0.154-1.28-0.462-1.69-0.308-0.42-0.725-0.63-1.251-0.63m0-0.84c0.859 0 1.534 0.28 2.024 0.84 0.491 0.56 0.736 1.33 0.736 2.32 0 0.98-0.245 1.76-0.736 2.32-0.49 0.56-1.165 0.84-2.024 0.84-0.863 0-1.54-0.28-2.031-0.84-0.487-0.56-0.73-1.34-0.73-2.32 0-0.99 0.243-1.76 0.73-2.32 0.491-0.56 1.168-0.84 2.031-0.84m7.879 1.07c-0.111-0.07-0.233-0.11-0.365-0.14-0.129-0.03-0.272-0.05-0.43-0.05-0.559 0-0.988 0.18-1.289 0.55-0.297 0.36-0.446 0.88-0.446 1.56v3.17h-0.994v-6.02h0.994v0.94c0.208-0.37 0.478-0.64 0.811-0.81 0.333-0.18 0.738-0.27 1.214-0.27 0.068 0 0.143 0 0.226 0.02 0.082 0 0.173 0.02 0.274 0.03l0.005 1.02"/>
    <path id="text3218" d="m213.35 525c0-0.73-0.15-1.3-0.45-1.71-0.29-0.42-0.7-0.62-1.23-0.62-0.52 0-0.93 0.2-1.23 0.62-0.3 0.41-0.45 0.98-0.45 1.71 0 0.72 0.15 1.3 0.45 1.71s0.71 0.62 1.23 0.62c0.53 0 0.94-0.21 1.23-0.62 0.3-0.41 0.45-0.99 0.45-1.71m-3.36-2.1c0.21-0.36 0.47-0.63 0.79-0.8s0.7-0.26 1.14-0.26c0.73 0 1.32 0.29 1.77 0.87 0.46 0.58 0.69 1.34 0.69 2.29 0 0.94-0.23 1.71-0.69 2.29-0.45 0.58-1.04 0.87-1.77 0.87-0.44 0-0.82-0.09-1.14-0.26-0.32-0.18-0.58-0.44-0.79-0.8v0.9h-0.99v-8.36h0.99v3.26m6.03-3.26h0.99v8.36h-0.99v-8.36m5.78 5.34c-0.79 0-1.35 0.09-1.66 0.27-0.3 0.18-0.46 0.49-0.46 0.93 0 0.36 0.12 0.63 0.35 0.84s0.54 0.31 0.94 0.31c0.55 0 0.99-0.19 1.32-0.58s0.5-0.91 0.5-1.55v-0.22h-0.99m1.97-0.41v3.43h-0.98v-0.91c-0.23 0.36-0.51 0.63-0.85 0.81-0.33 0.17-0.75 0.26-1.23 0.26-0.62 0-1.11-0.18-1.47-0.52-0.37-0.35-0.55-0.81-0.55-1.39 0-0.68 0.23-1.19 0.68-1.53 0.46-0.35 1.13-0.52 2.03-0.52h1.39v-0.09c0-0.46-0.15-0.81-0.45-1.06s-0.72-0.37-1.26-0.37c-0.35 0-0.68 0.04-1.01 0.12-0.32 0.08-0.63 0.21-0.94 0.37v-0.91c0.37-0.14 0.72-0.25 1.06-0.31 0.34-0.07 0.67-0.11 0.99-0.11 0.87 0 1.52 0.22 1.95 0.68 0.43 0.45 0.64 1.13 0.64 2.05m6.38-2.35v0.92c-0.28-0.15-0.57-0.27-0.85-0.34-0.28-0.08-0.56-0.12-0.85-0.12-0.64 0-1.14 0.2-1.49 0.61-0.35 0.4-0.53 0.97-0.53 1.71 0 0.73 0.18 1.3 0.53 1.71s0.85 0.61 1.49 0.61c0.29 0 0.57-0.04 0.85-0.11 0.28-0.08 0.57-0.2 0.85-0.35v0.91c-0.28 0.13-0.57 0.22-0.86 0.29-0.3 0.06-0.61 0.1-0.94 0.1-0.91 0-1.63-0.29-2.16-0.86-0.54-0.57-0.8-1.34-0.8-2.3 0-0.98 0.26-1.76 0.8-2.32s1.28-0.84 2.22-0.84c0.3 0 0.6 0.03 0.89 0.1 0.29 0.06 0.57 0.15 0.85 0.28m1.69-2.58h0.99v4.94l2.95-2.6h1.26l-3.19 2.82 3.33 3.2h-1.29l-3.06-2.94v2.94h-0.99v-8.36m12.25 3.04c-0.53 0-0.95 0.2-1.26 0.62-0.31 0.41-0.46 0.98-0.46 1.7s0.15 1.28 0.46 1.7c0.3 0.41 0.72 0.62 1.26 0.62 0.52 0 0.94-0.21 1.25-0.63 0.31-0.41 0.46-0.98 0.46-1.69 0-0.72-0.15-1.28-0.46-1.69-0.31-0.42-0.73-0.63-1.25-0.63m0-0.84c0.86 0 1.53 0.28 2.02 0.84s0.74 1.33 0.74 2.32c0 0.98-0.25 1.76-0.74 2.32s-1.16 0.84-2.02 0.84-1.54-0.28-2.03-0.84-0.73-1.34-0.73-2.32c0-0.99 0.24-1.76 0.73-2.32s1.17-0.84 2.03-0.84m9.39 2.53v3.63h-0.99v-3.6c0-0.57-0.11-0.99-0.33-1.28-0.22-0.28-0.55-0.42-1-0.42-0.53 0-0.95 0.17-1.26 0.51s-0.46 0.8-0.46 1.39v3.4h-1v-6.02h1v0.94c0.23-0.36 0.51-0.63 0.83-0.81s0.69-0.27 1.11-0.27c0.69 0 1.22 0.21 1.57 0.64 0.36 0.43 0.53 1.06 0.53 1.89m1.98-4.73h0.99v8.36h-0.99v-8.36m5.56 8.92c-0.28 0.71-0.55 1.18-0.82 1.4-0.26 0.22-0.62 0.33-1.06 0.33h-0.79v-0.83h0.58c0.27 0 0.48-0.06 0.63-0.19s0.32-0.44 0.5-0.92l0.18-0.45-2.43-5.92h1.04l1.88 4.71 1.88-4.71h1.05l-2.64 6.58"/>
    <path id="text3222" d="m386.37 522.68c-0.53 0-0.95 0.2-1.26 0.62-0.31 0.41-0.46 0.98-0.46 1.7s0.15 1.28 0.46 1.7c0.3 0.41 0.72 0.62 1.26 0.62 0.52 0 0.94-0.21 1.25-0.63 0.31-0.41 0.46-0.98 0.46-1.69 0-0.72-0.15-1.28-0.46-1.69-0.31-0.42-0.73-0.63-1.25-0.63m0-0.84c0.86 0 1.53 0.28 2.02 0.84s0.74 1.33 0.74 2.32c0 0.98-0.25 1.76-0.74 2.32s-1.16 0.84-2.02 0.84c-0.87 0-1.54-0.28-2.03-0.84s-0.73-1.34-0.73-2.32c0-0.99 0.24-1.76 0.73-2.32s1.16-0.84 2.03-0.84m4.29 3.79v-3.65h0.99v3.61c0 0.57 0.11 1 0.33 1.28s0.56 0.43 1 0.43c0.53 0 0.95-0.17 1.26-0.51s0.47-0.81 0.47-1.39v-3.42h0.99v6.02h-0.99v-0.92c-0.24 0.36-0.52 0.63-0.84 0.81-0.31 0.18-0.68 0.27-1.1 0.27-0.69 0-1.22-0.22-1.57-0.65-0.36-0.43-0.54-1.06-0.54-1.88m8.06-5.35v1.7h2.04v0.77h-2.04v3.27c0 0.49 0.07 0.8 0.2 0.94 0.14 0.14 0.41 0.21 0.82 0.21h1.02v0.83h-1.02c-0.76 0-1.29-0.14-1.58-0.42-0.29-0.29-0.43-0.81-0.43-1.56v-3.27h-0.73v-0.77h0.73v-1.7h0.99m3.34-0.64h0.99v8.36h-0.99v-8.36m3.05 2.34h0.99v6.02h-0.99v-6.02m0-2.34h0.99v1.25h-0.99v-1.25m8.05 4.73v3.63h-0.98v-3.6c0-0.57-0.12-0.99-0.34-1.28-0.22-0.28-0.55-0.42-1-0.42-0.53 0-0.95 0.17-1.26 0.51s-0.46 0.8-0.46 1.39v3.4h-0.99v-6.02h0.99v0.94c0.24-0.36 0.51-0.63 0.83-0.81s0.7-0.27 1.11-0.27c0.7 0 1.22 0.21 1.57 0.64 0.36 0.43 0.53 1.06 0.53 1.89m7.13 0.38v0.48h-4.54c0.04 0.68 0.24 1.2 0.61 1.56 0.37 0.35 0.88 0.53 1.54 0.53 0.38 0 0.74-0.05 1.1-0.14s0.71-0.23 1.06-0.42v0.93c-0.35 0.15-0.72 0.27-1.09 0.35s-0.75 0.12-1.13 0.12c-0.96 0-1.72-0.28-2.29-0.84-0.55-0.56-0.83-1.32-0.83-2.27 0-0.98 0.26-1.76 0.79-2.34s1.25-0.87 2.16-0.87c0.8 0 1.44 0.26 1.91 0.78 0.48 0.52 0.71 1.23 0.71 2.13m-0.99-0.29c0-0.55-0.16-0.98-0.45-1.3-0.3-0.32-0.69-0.48-1.17-0.48-0.56 0-1 0.15-1.33 0.46-0.33 0.32-0.52 0.75-0.57 1.32h3.52m8.45-1.78c-0.53 0-0.95 0.2-1.26 0.62-0.31 0.41-0.46 0.98-0.46 1.7s0.15 1.28 0.45 1.7c0.31 0.41 0.73 0.62 1.27 0.62 0.52 0 0.94-0.21 1.25-0.63 0.31-0.41 0.46-0.98 0.46-1.69 0-0.72-0.15-1.28-0.46-1.69-0.31-0.42-0.73-0.63-1.25-0.63m0-0.84c0.86 0 1.53 0.28 2.02 0.84s0.74 1.33 0.74 2.32c0 0.98-0.25 1.76-0.74 2.32s-1.16 0.84-2.02 0.84c-0.87 0-1.54-0.28-2.03-0.84s-0.73-1.34-0.73-2.32c0-0.99 0.24-1.76 0.73-2.32s1.16-0.84 2.03-0.84m9.39 2.53v3.63h-0.99v-3.6c0-0.57-0.11-0.99-0.33-1.28-0.22-0.28-0.56-0.42-1-0.42-0.53 0-0.95 0.17-1.26 0.51s-0.46 0.8-0.46 1.39v3.4h-1v-6.02h1v0.94c0.23-0.36 0.51-0.63 0.83-0.81s0.69-0.27 1.11-0.27c0.69 0 1.21 0.21 1.57 0.64 0.35 0.43 0.53 1.06 0.53 1.89m1.98-4.73h0.99v8.36h-0.99v-8.36m5.56 8.92c-0.28 0.71-0.56 1.18-0.82 1.4-0.27 0.22-0.62 0.33-1.06 0.33h-0.79v-0.83h0.58c0.27 0 0.48-0.06 0.63-0.19s0.32-0.44 0.5-0.92l0.18-0.45-2.44-5.92h1.05l1.88 4.71 1.88-4.71h1.05l-2.64 6.58"/>
    <path id="text3226" d="m564.37 522.22v0.92c-0.28-0.15-0.56-0.27-0.85-0.34-0.28-0.08-0.56-0.12-0.85-0.12-0.64 0-1.13 0.2-1.49 0.61-0.35 0.4-0.53 0.97-0.53 1.71 0 0.73 0.18 1.3 0.53 1.71 0.36 0.41 0.85 0.61 1.49 0.61 0.29 0 0.57-0.04 0.85-0.11 0.29-0.08 0.57-0.2 0.85-0.35v0.91c-0.28 0.13-0.57 0.22-0.86 0.29-0.3 0.06-0.61 0.1-0.94 0.1-0.91 0-1.63-0.29-2.16-0.86-0.54-0.57-0.8-1.34-0.8-2.3 0-0.98 0.27-1.76 0.8-2.32 0.54-0.56 1.28-0.84 2.22-0.84 0.31 0 0.6 0.03 0.89 0.1 0.29 0.06 0.57 0.15 0.85 0.28m4.46 2.76c-0.8 0-1.35 0.09-1.66 0.27s-0.46 0.49-0.46 0.93c0 0.36 0.11 0.63 0.34 0.84s0.55 0.31 0.95 0.31c0.54 0 0.98-0.19 1.31-0.58 0.34-0.39 0.5-0.91 0.5-1.55v-0.22h-0.98m1.97-0.41v3.43h-0.99v-0.91c-0.22 0.36-0.5 0.63-0.84 0.81-0.34 0.17-0.75 0.26-1.24 0.26-0.61 0-1.1-0.18-1.47-0.52-0.36-0.35-0.54-0.81-0.54-1.39 0-0.68 0.22-1.19 0.68-1.53 0.45-0.35 1.13-0.52 2.03-0.52h1.38v-0.09c0-0.46-0.15-0.81-0.45-1.06s-0.72-0.37-1.26-0.37c-0.34 0-0.67 0.04-1 0.12s-0.64 0.21-0.94 0.37v-0.91c0.36-0.14 0.71-0.25 1.05-0.31 0.34-0.07 0.67-0.11 1-0.11 0.87 0 1.52 0.22 1.95 0.68 0.43 0.45 0.64 1.13 0.64 2.05m5.53-1.66c-0.11-0.07-0.24-0.11-0.37-0.14s-0.27-0.05-0.43-0.05c-0.56 0-0.99 0.18-1.29 0.55-0.29 0.36-0.44 0.88-0.44 1.56v3.17h-1v-6.02h1v0.94c0.21-0.37 0.48-0.64 0.81-0.81 0.33-0.18 0.74-0.27 1.21-0.27 0.07 0 0.15 0 0.23 0.02 0.08 0 0.17 0.02 0.27 0.03l0.01 1.02m2.02-2.63v1.7h2.04v0.77h-2.04v3.27c0 0.49 0.07 0.8 0.2 0.94 0.14 0.14 0.41 0.21 0.82 0.21h1.02v0.83h-1.02c-0.76 0-1.29-0.14-1.58-0.42-0.29-0.29-0.43-0.81-0.43-1.56v-3.27h-0.73v-0.77h0.73v-1.7h0.99m5.67 2.4c-0.53 0-0.94 0.2-1.25 0.62-0.31 0.41-0.46 0.98-0.46 1.7s0.15 1.28 0.45 1.7c0.31 0.41 0.73 0.62 1.26 0.62s0.95-0.21 1.26-0.63c0.3-0.41 0.46-0.98 0.46-1.69 0-0.72-0.16-1.28-0.46-1.69-0.31-0.42-0.73-0.63-1.26-0.63m0-0.84c0.86 0 1.54 0.28 2.03 0.84s0.73 1.33 0.73 2.32c0 0.98-0.24 1.76-0.73 2.32s-1.17 0.84-2.03 0.84-1.54-0.28-2.03-0.84c-0.48-0.56-0.73-1.34-0.73-2.32 0-0.99 0.25-1.76 0.73-2.32 0.49-0.56 1.17-0.84 2.03-0.84m6.73 0.84c-0.53 0-0.95 0.2-1.26 0.62-0.31 0.41-0.46 0.98-0.46 1.7s0.15 1.28 0.46 1.7c0.3 0.41 0.73 0.62 1.26 0.62 0.52 0 0.94-0.21 1.25-0.63 0.31-0.41 0.46-0.98 0.46-1.69 0-0.72-0.15-1.28-0.46-1.69-0.31-0.42-0.73-0.63-1.25-0.63m0-0.84c0.86 0 1.53 0.28 2.02 0.84s0.74 1.33 0.74 2.32c0 0.98-0.25 1.76-0.74 2.32s-1.16 0.84-2.02 0.84-1.54-0.28-2.03-0.84-0.73-1.34-0.73-2.32c0-0.99 0.24-1.76 0.73-2.32s1.17-0.84 2.03-0.84m9.39 2.53v3.63h-0.99v-3.6c0-0.57-0.11-0.99-0.33-1.28-0.22-0.28-0.55-0.42-1-0.42-0.53 0-0.95 0.17-1.26 0.51s-0.46 0.8-0.46 1.39v3.4h-1v-6.02h1v0.94c0.23-0.36 0.51-0.63 0.83-0.81s0.69-0.27 1.11-0.27c0.69 0 1.22 0.21 1.57 0.64 0.36 0.43 0.53 1.06 0.53 1.89m4.49 4.19c-0.28 0.71-0.55 1.18-0.82 1.4-0.26 0.22-0.62 0.33-1.06 0.33h-0.79v-0.83h0.58c0.27 0 0.48-0.06 0.63-0.19s0.32-0.44 0.5-0.92l0.18-0.45-2.43-5.92h1.04l1.88 4.71 1.88-4.71h1.05l-2.64 6.58"/>
    <path id="text3230" d="m34.037 720.64h0.988v8.36h-0.988v-8.36m5.381 3.04c-0.529 0-0.948 0.2-1.256 0.62-0.308 0.41-0.462 0.98-0.462 1.7s0.152 1.28 0.456 1.7c0.308 0.41 0.729 0.62 1.262 0.62 0.527 0 0.944-0.21 1.252-0.63 0.308-0.41 0.462-0.98 0.462-1.69 0-0.72-0.154-1.28-0.462-1.69-0.308-0.42-0.725-0.63-1.252-0.63m0-0.84c0.86 0 1.535 0.28 2.025 0.84 0.491 0.56 0.736 1.33 0.736 2.32 0 0.98-0.245 1.76-0.736 2.32-0.49 0.56-1.165 0.84-2.025 0.84-0.863 0-1.539-0.28-2.03-0.84-0.487-0.56-0.73-1.34-0.73-2.32 0-0.99 0.243-1.76 0.73-2.32 0.491-0.56 1.167-0.84 2.03-0.84m8.353 3.08c0-0.71-0.149-1.27-0.446-1.66-0.294-0.4-0.707-0.59-1.241-0.59-0.53 0-0.944 0.19-1.241 0.59-0.293 0.39-0.44 0.95-0.44 1.66s0.147 1.27 0.44 1.66c0.297 0.4 0.711 0.59 1.241 0.59 0.534 0 0.947-0.19 1.241-0.59 0.297-0.39 0.446-0.95 0.446-1.66m0.988 2.33c0 1.03-0.228 1.79-0.682 2.29-0.455 0.5-1.152 0.75-2.09 0.75-0.347 0-0.675-0.03-0.983-0.08s-0.607-0.13-0.897-0.24v-0.96c0.29 0.16 0.577 0.27 0.86 0.35 0.283 0.07 0.571 0.11 0.865 0.11 0.648 0 1.133-0.17 1.455-0.51s0.484-0.85 0.484-1.53v-0.49c-0.205 0.36-0.466 0.62-0.785 0.8-0.318 0.17-0.7 0.26-1.144 0.26-0.737 0-1.332-0.28-1.783-0.84-0.451-0.57-0.677-1.31-0.677-2.24s0.226-1.68 0.677-2.24 1.046-0.84 1.783-0.84c0.444 0 0.826 0.09 1.144 0.26 0.319 0.18 0.58 0.44 0.785 0.8v-0.92h0.988v5.27m4.366-4.57c-0.529 0-0.948 0.2-1.256 0.62-0.308 0.41-0.462 0.98-0.462 1.7s0.152 1.28 0.456 1.7c0.308 0.41 0.729 0.62 1.262 0.62 0.527 0 0.944-0.21 1.252-0.63 0.308-0.41 0.462-0.98 0.462-1.69 0-0.72-0.154-1.28-0.462-1.69-0.308-0.42-0.725-0.63-1.252-0.63m0-0.84c0.86 0 1.535 0.28 2.025 0.84 0.491 0.56 0.736 1.33 0.736 2.32 0 0.98-0.245 1.76-0.736 2.32-0.49 0.56-1.165 0.84-2.025 0.84-0.862 0-1.539-0.28-2.03-0.84-0.487-0.56-0.73-1.34-0.73-2.32 0-0.99 0.243-1.76 0.73-2.32 0.491-0.56 1.168-0.84 2.03-0.84m5.372-1.56v1.7h2.035v0.77h-2.035v3.27c0 0.49 0.066 0.8 0.198 0.94 0.136 0.14 0.41 0.21 0.822 0.21h1.015v0.83h-1.015c-0.763 0-1.289-0.14-1.579-0.42-0.29-0.29-0.435-0.81-0.435-1.56v-3.27h-0.725v-0.77h0.725v-1.7h0.994m5.843 8.28c-0.279 0.71-0.551 1.18-0.816 1.4s-0.62 0.33-1.064 0.33h-0.789v-0.83h0.58c0.272 0 0.483-0.06 0.634-0.19 0.15-0.13 0.317-0.44 0.499-0.92l0.178-0.45-2.434-5.92h1.048l1.88 4.71 1.88-4.71h1.047l-2.643 6.58m4.963-1.46v3.19h-0.993v-8.31h0.993v0.92c0.208-0.36 0.469-0.63 0.784-0.8 0.319-0.17 0.699-0.26 1.139-0.26 0.731 0 1.323 0.29 1.778 0.87 0.458 0.58 0.687 1.34 0.687 2.29 0 0.94-0.229 1.71-0.687 2.29-0.455 0.58-1.047 0.87-1.778 0.87-0.44 0-0.82-0.09-1.139-0.26-0.315-0.18-0.576-0.44-0.784-0.8m3.363-2.1c0-0.73-0.151-1.3-0.452-1.71-0.297-0.42-0.707-0.62-1.23-0.62-0.522 0-0.934 0.2-1.235 0.62-0.297 0.41-0.446 0.98-0.446 1.71 0 0.72 0.149 1.3 0.446 1.71 0.301 0.41 0.713 0.62 1.235 0.62 0.523 0 0.933-0.21 1.23-0.62 0.301-0.41 0.452-0.99 0.452-1.71m7.809-0.25v0.48h-4.544c0.043 0.68 0.247 1.2 0.612 1.56 0.369 0.35 0.881 0.53 1.537 0.53 0.379 0 0.746-0.05 1.101-0.14 0.358-0.09 0.712-0.23 1.063-0.42v0.93c-0.354 0.15-0.718 0.27-1.09 0.35-0.373 0.08-0.75 0.12-1.133 0.12-0.96 0-1.721-0.28-2.283-0.84-0.559-0.56-0.838-1.32-0.838-2.27 0-0.98 0.265-1.76 0.795-2.34 0.533-0.58 1.251-0.87 2.154-0.87 0.809 0 1.448 0.26 1.917 0.78 0.473 0.52 0.709 1.23 0.709 2.13m-0.988-0.29c-0.007-0.55-0.16-0.98-0.457-1.3-0.293-0.32-0.684-0.48-1.171-0.48-0.551 0-0.993 0.15-1.326 0.46-0.33 0.32-0.519 0.75-0.57 1.32h3.524"/>
    <path id="text3234" d="m213.37 723.22v0.92c-0.28-0.15-0.56-0.27-0.85-0.34-0.28-0.08-0.56-0.12-0.85-0.12-0.64 0-1.13 0.2-1.49 0.61-0.35 0.4-0.53 0.97-0.53 1.71 0 0.73 0.18 1.3 0.53 1.71 0.36 0.41 0.85 0.61 1.49 0.61 0.29 0 0.57-0.04 0.85-0.11 0.29-0.08 0.57-0.2 0.85-0.35v0.91c-0.28 0.13-0.57 0.22-0.86 0.29-0.3 0.06-0.61 0.1-0.94 0.1-0.91 0-1.63-0.29-2.16-0.86-0.54-0.57-0.8-1.34-0.8-2.3 0-0.98 0.27-1.76 0.8-2.32 0.54-0.56 1.28-0.84 2.22-0.84 0.31 0 0.6 0.03 0.89 0.1 0.29 0.06 0.57 0.15 0.85 0.28m4.06 0.46c-0.53 0-0.95 0.2-1.26 0.62-0.31 0.41-0.46 0.98-0.46 1.7s0.15 1.28 0.45 1.7c0.31 0.41 0.73 0.62 1.27 0.62 0.52 0 0.94-0.21 1.25-0.63 0.31-0.41 0.46-0.98 0.46-1.69 0-0.72-0.15-1.28-0.46-1.69-0.31-0.42-0.73-0.63-1.25-0.63m0-0.84c0.86 0 1.53 0.28 2.02 0.84s0.74 1.33 0.74 2.32c0 0.98-0.25 1.76-0.74 2.32s-1.16 0.84-2.02 0.84c-0.87 0-1.54-0.28-2.03-0.84s-0.73-1.34-0.73-2.32c0-0.99 0.24-1.76 0.73-2.32s1.16-0.84 2.03-0.84m4.39-2.2h0.99v8.36h-0.99v-8.36m5.38 3.04c-0.53 0-0.95 0.2-1.26 0.62-0.3 0.41-0.46 0.98-0.46 1.7s0.16 1.28 0.46 1.7c0.31 0.41 0.73 0.62 1.26 0.62s0.95-0.21 1.25-0.63c0.31-0.41 0.47-0.98 0.47-1.69 0-0.72-0.16-1.28-0.47-1.69-0.3-0.42-0.72-0.63-1.25-0.63m0-0.84c0.86 0 1.54 0.28 2.03 0.84s0.73 1.33 0.73 2.32c0 0.98-0.24 1.76-0.73 2.32s-1.17 0.84-2.03 0.84-1.54-0.28-2.03-0.84-0.73-1.34-0.73-2.32c0-0.99 0.24-1.76 0.73-2.32s1.17-0.84 2.03-0.84m7.88 1.07c-0.11-0.07-0.23-0.11-0.36-0.14s-0.28-0.05-0.43-0.05c-0.56 0-0.99 0.18-1.29 0.55-0.3 0.36-0.45 0.88-0.45 1.56v3.17h-0.99v-6.02h0.99v0.94c0.21-0.37 0.48-0.64 0.81-0.81 0.34-0.18 0.74-0.27 1.22-0.27 0.06 0 0.14 0 0.22 0.02 0.08 0 0.18 0.02 0.28 0.03v1.02m8.39-0.75v0.94c-0.28-0.15-0.57-0.25-0.87-0.33-0.31-0.07-0.62-0.1-0.94-0.1-0.49 0-0.86 0.07-1.11 0.22-0.24 0.15-0.36 0.38-0.36 0.68 0 0.23 0.09 0.41 0.26 0.54 0.18 0.13 0.53 0.25 1.06 0.37l0.34 0.08c0.7 0.15 1.2 0.36 1.49 0.64 0.3 0.27 0.45 0.65 0.45 1.14 0 0.56-0.22 1-0.67 1.33-0.44 0.32-1.05 0.49-1.82 0.49-0.32 0-0.66-0.04-1.01-0.1s-0.71-0.15-1.1-0.28v-1.02c0.37 0.19 0.73 0.33 1.08 0.43 0.35 0.09 0.7 0.14 1.05 0.14 0.47 0 0.83-0.08 1.08-0.24s0.37-0.38 0.37-0.67c0-0.27-0.09-0.48-0.27-0.62-0.18-0.15-0.58-0.28-1.19-0.42l-0.34-0.08c-0.61-0.13-1.06-0.32-1.33-0.59s-0.41-0.63-0.41-1.1c0-0.56 0.2-1 0.6-1.31 0.41-0.31 0.97-0.46 1.71-0.46 0.37 0 0.71 0.03 1.03 0.08 0.33 0.05 0.62 0.13 0.9 0.24m6.23 0.06v0.92c-0.28-0.15-0.56-0.27-0.85-0.34-0.28-0.08-0.56-0.12-0.85-0.12-0.64 0-1.13 0.2-1.49 0.61-0.35 0.4-0.53 0.97-0.53 1.71 0 0.73 0.18 1.3 0.53 1.71 0.36 0.41 0.85 0.61 1.49 0.61 0.29 0 0.57-0.04 0.85-0.11 0.29-0.08 0.57-0.2 0.85-0.35v0.91c-0.28 0.13-0.57 0.22-0.86 0.29-0.3 0.06-0.61 0.1-0.94 0.1-0.91 0-1.63-0.29-2.16-0.86-0.54-0.57-0.8-1.34-0.8-2.3 0-0.98 0.27-1.76 0.8-2.32 0.54-0.56 1.28-0.84 2.22-0.84 0.31 0 0.6 0.03 0.89 0.1 0.29 0.06 0.57 0.15 0.85 0.28m6.73 2.15v3.63h-0.99v-3.6c0-0.57-0.11-0.99-0.34-1.28-0.22-0.28-0.55-0.42-0.99-0.42-0.54 0-0.96 0.17-1.27 0.51-0.3 0.34-0.46 0.8-0.46 1.39v3.4h-0.99v-8.36h0.99v3.28c0.24-0.36 0.52-0.63 0.83-0.81 0.33-0.18 0.7-0.27 1.12-0.27 0.69 0 1.21 0.21 1.56 0.64 0.36 0.43 0.54 1.06 0.54 1.89m7.12 0.38v0.48h-4.54c0.04 0.68 0.25 1.2 0.61 1.56 0.37 0.35 0.88 0.53 1.54 0.53 0.38 0 0.74-0.05 1.1-0.14s0.71-0.23 1.06-0.42v0.93c-0.35 0.15-0.72 0.27-1.09 0.35s-0.75 0.12-1.13 0.12c-0.96 0-1.72-0.28-2.28-0.84s-0.84-1.32-0.84-2.27c0-0.98 0.26-1.76 0.79-2.34 0.54-0.58 1.25-0.87 2.16-0.87 0.81 0 1.45 0.26 1.91 0.78 0.48 0.52 0.71 1.23 0.71 2.13m-0.99-0.29c0-0.55-0.15-0.98-0.45-1.3s-0.69-0.48-1.17-0.48c-0.55 0-1 0.15-1.33 0.46-0.33 0.32-0.52 0.75-0.57 1.32h3.52m7.3-1.32c0.25-0.44 0.54-0.77 0.89-0.98 0.34-0.22 0.74-0.32 1.21-0.32 0.63 0 1.11 0.22 1.45 0.66s0.51 1.06 0.51 1.87v3.63h-0.99v-3.6c0-0.58-0.11-1-0.31-1.28s-0.52-0.42-0.93-0.42c-0.52 0-0.92 0.17-1.22 0.51s-0.44 0.8-0.44 1.39v3.4h-1v-3.6c0-0.58-0.1-1.01-0.3-1.28-0.21-0.28-0.52-0.42-0.95-0.42-0.5 0-0.91 0.17-1.2 0.51-0.3 0.34-0.45 0.81-0.45 1.39v3.4h-0.99v-6.02h0.99v0.94c0.23-0.37 0.5-0.64 0.81-0.82 0.32-0.17 0.69-0.26 1.12-0.26 0.44 0 0.81 0.11 1.12 0.33 0.3 0.22 0.53 0.55 0.68 0.97m11.18 1.61v0.48h-4.54c0.04 0.68 0.24 1.2 0.61 1.56 0.37 0.35 0.88 0.53 1.54 0.53 0.38 0 0.74-0.05 1.1-0.14s0.71-0.23 1.06-0.42v0.93c-0.35 0.15-0.72 0.27-1.09 0.35s-0.75 0.12-1.13 0.12c-0.96 0-1.72-0.28-2.29-0.84-0.55-0.56-0.83-1.32-0.83-2.27 0-0.98 0.26-1.76 0.79-2.34s1.25-0.87 2.16-0.87c0.8 0 1.44 0.26 1.91 0.78 0.48 0.52 0.71 1.23 0.71 2.13m-0.99-0.29c0-0.55-0.16-0.98-0.45-1.3-0.3-0.32-0.69-0.48-1.17-0.48-0.56 0-1 0.15-1.33 0.46-0.33 0.32-0.52 0.75-0.57 1.32h3.52"/>
    <path id="text3238" d="m390.04 722.98h0.98v6.02h-0.98v-6.02m0-2.34h0.98v1.25h-0.98v-1.25m7.38 2.58v0.92c-0.28-0.15-0.56-0.27-0.85-0.34-0.28-0.08-0.56-0.12-0.85-0.12-0.64 0-1.13 0.2-1.49 0.61-0.35 0.4-0.53 0.97-0.53 1.71 0 0.73 0.18 1.3 0.53 1.71 0.36 0.41 0.85 0.61 1.49 0.61 0.29 0 0.57-0.04 0.85-0.11 0.29-0.08 0.57-0.2 0.85-0.35v0.91c-0.28 0.13-0.57 0.22-0.86 0.29-0.3 0.06-0.61 0.1-0.94 0.1-0.91 0-1.63-0.29-2.16-0.86-0.54-0.57-0.8-1.34-0.8-2.3 0-0.98 0.27-1.76 0.8-2.32 0.54-0.56 1.28-0.84 2.22-0.84 0.31 0 0.6 0.03 0.89 0.1 0.29 0.06 0.57 0.15 0.85 0.28m4.06 0.46c-0.53 0-0.95 0.2-1.26 0.62-0.31 0.41-0.46 0.98-0.46 1.7s0.15 1.28 0.45 1.7c0.31 0.41 0.73 0.62 1.27 0.62 0.52 0 0.94-0.21 1.25-0.63 0.31-0.41 0.46-0.98 0.46-1.69 0-0.72-0.15-1.28-0.46-1.69-0.31-0.42-0.73-0.63-1.25-0.63m0-0.84c0.86 0 1.53 0.28 2.02 0.84s0.74 1.33 0.74 2.32c0 0.98-0.25 1.76-0.74 2.32s-1.16 0.84-2.02 0.84c-0.87 0-1.54-0.28-2.03-0.84s-0.73-1.34-0.73-2.32c0-0.99 0.24-1.76 0.73-2.32s1.16-0.84 2.03-0.84m9.39 2.53v3.63h-0.99v-3.6c0-0.57-0.11-0.99-0.33-1.28-0.22-0.28-0.56-0.42-1-0.42-0.53 0-0.95 0.17-1.26 0.51s-0.46 0.8-0.46 1.39v3.4h-1v-6.02h1v0.94c0.23-0.36 0.51-0.63 0.83-0.81s0.69-0.27 1.11-0.27c0.69 0 1.21 0.21 1.57 0.64 0.35 0.43 0.53 1.06 0.53 1.89m9.32-2.21v0.94c-0.28-0.15-0.57-0.25-0.87-0.33-0.3-0.07-0.61-0.1-0.93-0.1-0.5 0-0.86 0.07-1.11 0.22-0.24 0.15-0.37 0.38-0.37 0.68 0 0.23 0.09 0.41 0.27 0.54 0.17 0.13 0.52 0.25 1.05 0.37l0.34 0.08c0.71 0.15 1.2 0.36 1.5 0.64 0.29 0.27 0.44 0.65 0.44 1.14 0 0.56-0.22 1-0.66 1.33-0.44 0.32-1.05 0.49-1.82 0.49-0.33 0-0.66-0.04-1.01-0.1s-0.72-0.15-1.11-0.28v-1.02c0.37 0.19 0.73 0.33 1.08 0.43 0.36 0.09 0.71 0.14 1.06 0.14 0.46 0 0.82-0.08 1.07-0.24s0.38-0.38 0.38-0.67c0-0.27-0.09-0.48-0.28-0.62-0.18-0.15-0.57-0.28-1.18-0.42l-0.35-0.08c-0.61-0.13-1.05-0.32-1.32-0.59-0.28-0.27-0.41-0.63-0.41-1.1 0-0.56 0.2-1 0.6-1.31s0.97-0.46 1.71-0.46c0.36 0 0.71 0.03 1.03 0.08s0.62 0.13 0.89 0.24m7.05 2.59v0.48h-4.55c0.05 0.68 0.25 1.2 0.62 1.56 0.36 0.35 0.88 0.53 1.53 0.53 0.38 0 0.75-0.05 1.1-0.14 0.36-0.09 0.71-0.23 1.07-0.42v0.93c-0.36 0.15-0.72 0.27-1.09 0.35-0.38 0.08-0.75 0.12-1.14 0.12-0.96 0-1.72-0.28-2.28-0.84s-0.84-1.32-0.84-2.27c0-0.98 0.27-1.76 0.8-2.34s1.25-0.87 2.15-0.87c0.81 0 1.45 0.26 1.92 0.78s0.71 1.23 0.71 2.13m-0.99-0.29c-0.01-0.55-0.16-0.98-0.46-1.3-0.29-0.32-0.68-0.48-1.17-0.48-0.55 0-0.99 0.15-1.33 0.46-0.33 0.32-0.51 0.75-0.56 1.32h3.52m3.59-4.18v1.7h2.03v0.77h-2.03v3.27c0 0.49 0.06 0.8 0.2 0.94 0.13 0.14 0.41 0.21 0.82 0.21h1.01v0.83h-1.01c-0.77 0-1.29-0.14-1.58-0.42-0.29-0.29-0.44-0.81-0.44-1.56v-3.27h-0.72v-0.77h0.72v-1.7h1"/>
    <path id="text3242" d="m393.36 703.09h1.78v-6.12l-1.93 0.39v-0.99l1.92-0.39h1.08v7.11h1.77v0.91h-4.62v-0.91m7.75 0h3.79v0.91h-5.09v-0.91c0.41-0.43 0.97-1 1.68-1.72s1.16-1.18 1.34-1.39c0.35-0.39 0.59-0.72 0.73-0.99s0.21-0.53 0.21-0.8c0-0.42-0.15-0.77-0.45-1.04s-0.69-0.4-1.17-0.4c-0.34 0-0.7 0.06-1.08 0.18-0.37 0.11-0.78 0.29-1.21 0.53v-1.09c0.44-0.18 0.85-0.31 1.23-0.4s0.72-0.13 1.04-0.13c0.83 0 1.49 0.2 1.99 0.62 0.49 0.41 0.74 0.97 0.74 1.66 0 0.33-0.06 0.65-0.19 0.94-0.12 0.3-0.35 0.64-0.67 1.05-0.09 0.1-0.38 0.4-0.85 0.9-0.48 0.49-1.16 1.19-2.04 2.08m8.39-2.9c-0.51 0-0.92 0.14-1.21 0.42-0.3 0.27-0.45 0.65-0.45 1.13 0 0.49 0.15 0.87 0.45 1.14 0.29 0.28 0.7 0.42 1.21 0.42 0.52 0 0.93-0.14 1.22-0.42 0.3-0.28 0.45-0.66 0.45-1.14s-0.15-0.86-0.45-1.13c-0.29-0.28-0.7-0.42-1.22-0.42m-1.08-0.46c-0.47-0.11-0.83-0.33-1.09-0.65s-0.39-0.71-0.39-1.17c0-0.64 0.23-1.14 0.68-1.52 0.46-0.37 1.09-0.55 1.88-0.55 0.8 0 1.43 0.18 1.88 0.55 0.46 0.38 0.69 0.88 0.69 1.52 0 0.46-0.13 0.85-0.4 1.17-0.25 0.32-0.61 0.54-1.08 0.65 0.53 0.12 0.93 0.36 1.22 0.71 0.3 0.36 0.44 0.79 0.44 1.3 0 0.78-0.23 1.38-0.71 1.79-0.47 0.42-1.15 0.63-2.04 0.63-0.88 0-1.56-0.21-2.04-0.63-0.47-0.41-0.71-1.01-0.71-1.79 0-0.51 0.15-0.94 0.44-1.3 0.3-0.35 0.71-0.59 1.23-0.71m-0.4-1.71c0 0.41 0.13 0.74 0.39 0.97s0.63 0.35 1.09 0.35c0.47 0 0.83-0.12 1.09-0.35 0.27-0.23 0.4-0.56 0.4-0.97 0-0.42-0.13-0.74-0.4-0.98-0.26-0.23-0.62-0.34-1.09-0.34-0.46 0-0.83 0.11-1.09 0.34-0.26 0.24-0.39 0.56-0.39 0.98m6.98 5.08v3.19h-0.99v-8.31h0.99v0.92c0.21-0.36 0.47-0.63 0.79-0.8s0.7-0.26 1.14-0.26c0.73 0 1.32 0.29 1.78 0.87 0.45 0.58 0.68 1.34 0.68 2.29 0 0.94-0.23 1.71-0.68 2.29-0.46 0.58-1.05 0.87-1.78 0.87-0.44 0-0.82-0.09-1.14-0.26-0.32-0.18-0.58-0.44-0.79-0.8m3.37-2.1c0-0.73-0.15-1.3-0.45-1.71-0.3-0.42-0.71-0.62-1.23-0.62-0.53 0-0.94 0.2-1.24 0.62-0.3 0.41-0.45 0.98-0.45 1.71 0 0.72 0.15 1.3 0.45 1.71s0.71 0.62 1.24 0.62c0.52 0 0.93-0.21 1.23-0.62s0.45-0.99 0.45-1.71m7.66-3.02l-2.17 2.93 2.28 3.09h-1.16l-1.75-2.36-1.75 2.36h-1.17l2.34-3.15-2.14-2.87h1.17l1.59 2.15 1.6-2.15h1.16"/>
    <path id="text3246" d="m534.63 635.56c-0.49 0-0.87 0.16-1.16 0.5-0.28 0.33-0.42 0.79-0.42 1.37 0 0.57 0.14 1.03 0.42 1.37 0.29 0.33 0.67 0.5 1.16 0.5s0.87-0.17 1.16-0.5c0.28-0.34 0.43-0.8 0.43-1.37 0-0.58-0.15-1.04-0.43-1.37-0.29-0.34-0.67-0.5-1.16-0.5m2.15-3.4v0.99c-0.27-0.13-0.54-0.23-0.82-0.3s-0.55-0.1-0.82-0.1c-0.72 0-1.27 0.24-1.65 0.72-0.37 0.49-0.59 1.22-0.64 2.2 0.21-0.32 0.47-0.55 0.79-0.72s0.67-0.25 1.06-0.25c0.8 0 1.44 0.24 1.9 0.73 0.47 0.49 0.71 1.16 0.71 2 0 0.82-0.25 1.48-0.73 1.98-0.49 0.5-1.14 0.75-1.95 0.75-0.93 0-1.64-0.36-2.13-1.07s-0.73-1.74-0.73-3.09c0-1.27 0.3-2.28 0.9-3.03 0.6-0.76 1.41-1.13 2.42-1.13 0.27 0 0.55 0.02 0.82 0.08 0.28 0.05 0.57 0.13 0.87 0.24m5.38 0.77l-2.74 4.28h2.74v-4.28m-0.28-0.95h1.36v5.23h1.14v0.9h-1.14v1.89h-1.08v-1.89h-3.62v-1.05l3.34-5.08m5.12 7.12v3.19h-0.99v-8.31h0.99v0.92c0.21-0.36 0.47-0.63 0.78-0.8 0.32-0.17 0.7-0.26 1.14-0.26 0.73 0 1.33 0.29 1.78 0.87 0.46 0.58 0.69 1.34 0.69 2.29 0 0.94-0.23 1.71-0.69 2.29-0.45 0.58-1.05 0.87-1.78 0.87-0.44 0-0.82-0.09-1.14-0.26-0.31-0.18-0.57-0.44-0.78-0.8m3.36-2.1c0-0.73-0.15-1.3-0.45-1.71-0.3-0.42-0.71-0.62-1.23-0.62s-0.93 0.2-1.23 0.62c-0.3 0.41-0.45 0.98-0.45 1.71 0 0.72 0.15 1.3 0.45 1.71s0.71 0.62 1.23 0.62 0.93-0.21 1.23-0.62 0.45-0.99 0.45-1.71m7.67-3.02l-2.18 2.93 2.29 3.09h-1.17l-1.75-2.36-1.75 2.36h-1.16l2.33-3.15-2.13-2.87h1.16l1.6 2.15 1.59-2.15h1.17"/>
    <path id="text3250" d="m533.11 688.09h3.79v0.91h-5.09v-0.91c0.41-0.43 0.97-1 1.68-1.72s1.16-1.18 1.34-1.39c0.35-0.39 0.59-0.72 0.72-0.99 0.14-0.27 0.21-0.53 0.21-0.8 0-0.42-0.15-0.77-0.45-1.04-0.29-0.27-0.68-0.4-1.16-0.4-0.34 0-0.7 0.06-1.08 0.18-0.38 0.11-0.78 0.29-1.21 0.53v-1.09c0.44-0.18 0.84-0.31 1.22-0.4s0.73-0.13 1.05-0.13c0.83 0 1.49 0.2 1.98 0.62 0.5 0.41 0.74 0.97 0.74 1.66 0 0.33-0.06 0.65-0.18 0.94-0.13 0.3-0.35 0.64-0.67 1.05-0.09 0.1-0.38 0.4-0.86 0.9-0.48 0.49-1.16 1.19-2.03 2.08m7 0h3.79v0.91h-5.09v-0.91c0.41-0.43 0.97-1 1.68-1.72s1.16-1.18 1.34-1.39c0.35-0.39 0.59-0.72 0.73-0.99s0.21-0.53 0.21-0.8c0-0.42-0.15-0.77-0.45-1.04s-0.69-0.4-1.17-0.4c-0.34 0-0.7 0.06-1.08 0.18-0.37 0.11-0.78 0.29-1.21 0.53v-1.09c0.44-0.18 0.85-0.31 1.23-0.4s0.72-0.13 1.04-0.13c0.83 0 1.49 0.2 1.99 0.62 0.49 0.41 0.74 0.97 0.74 1.66 0 0.33-0.06 0.65-0.19 0.94-0.12 0.3-0.35 0.64-0.67 1.05-0.09 0.1-0.38 0.4-0.85 0.9-0.48 0.49-1.16 1.19-2.04 2.08m6.89 0.01v3.19h-0.99v-8.31h0.99v0.92c0.21-0.36 0.47-0.63 0.78-0.8 0.32-0.17 0.7-0.26 1.14-0.26 0.73 0 1.33 0.29 1.78 0.87 0.46 0.58 0.69 1.34 0.69 2.29 0 0.94-0.23 1.71-0.69 2.29-0.45 0.58-1.05 0.87-1.78 0.87-0.44 0-0.82-0.09-1.14-0.26-0.31-0.18-0.57-0.44-0.78-0.8m3.36-2.1c0-0.73-0.15-1.3-0.45-1.71-0.3-0.42-0.71-0.62-1.23-0.62s-0.93 0.2-1.23 0.62c-0.3 0.41-0.45 0.98-0.45 1.71 0 0.72 0.15 1.3 0.45 1.71s0.71 0.62 1.23 0.62 0.93-0.21 1.23-0.62 0.45-0.99 0.45-1.71m7.67-3.02l-2.18 2.93 2.29 3.09h-1.17l-1.75-2.36-1.75 2.36h-1.16l2.33-3.15-2.13-2.87h1.16l1.6 2.15 1.59-2.15h1.17"/>
    <path id="text3254" d="m568.36 688.09h1.78v-6.12l-1.93 0.39v-0.99l1.92-0.39h1.08v7.11h1.77v0.91h-4.62v-0.91m9.27-3.53c-0.48 0-0.87 0.16-1.16 0.5-0.28 0.33-0.42 0.79-0.42 1.37 0 0.57 0.14 1.03 0.42 1.37 0.29 0.33 0.68 0.5 1.16 0.5 0.49 0 0.88-0.17 1.16-0.5 0.29-0.34 0.43-0.8 0.43-1.37 0-0.58-0.14-1.04-0.43-1.37-0.28-0.34-0.67-0.5-1.16-0.5m2.16-3.4v0.99c-0.27-0.13-0.55-0.23-0.83-0.3-0.27-0.07-0.55-0.1-0.82-0.1-0.72 0-1.26 0.24-1.64 0.72-0.38 0.49-0.59 1.22-0.65 2.2 0.21-0.32 0.48-0.55 0.8-0.72s0.67-0.25 1.05-0.25c0.8 0 1.44 0.24 1.91 0.73s0.7 1.16 0.7 2c0 0.82-0.24 1.48-0.73 1.98s-1.14 0.75-1.95 0.75c-0.92 0-1.63-0.36-2.12-1.07s-0.74-1.74-0.74-3.09c0-1.27 0.3-2.28 0.9-3.03 0.61-0.76 1.41-1.13 2.43-1.13 0.27 0 0.54 0.02 0.82 0.08 0.28 0.05 0.57 0.13 0.87 0.24m3.21 6.94v3.19h-0.99v-8.31h0.99v0.92c0.21-0.36 0.47-0.63 0.78-0.8 0.32-0.17 0.7-0.26 1.14-0.26 0.73 0 1.33 0.29 1.78 0.87 0.46 0.58 0.69 1.34 0.69 2.29 0 0.94-0.23 1.71-0.69 2.29-0.45 0.58-1.05 0.87-1.78 0.87-0.44 0-0.82-0.09-1.14-0.26-0.31-0.18-0.57-0.44-0.78-0.8m3.36-2.1c0-0.73-0.15-1.3-0.45-1.71-0.3-0.42-0.71-0.62-1.23-0.62s-0.93 0.2-1.23 0.62c-0.3 0.41-0.45 0.98-0.45 1.71 0 0.72 0.15 1.3 0.45 1.71s0.71 0.62 1.23 0.62 0.93-0.21 1.23-0.62 0.45-0.99 0.45-1.71m7.67-3.02l-2.18 2.93 2.29 3.09h-1.17l-1.75-2.36-1.75 2.36h-1.16l2.33-3.15-2.13-2.87h1.16l1.6 2.15 1.59-2.15h1.17"/>
    <path id="text3258" d="m613.16 616.93l-2.74 4.28h2.74v-4.28m-0.29-0.95h1.37v5.23h1.14v0.9h-1.14v1.89h-1.08v-1.89h-3.62v-1.05l3.33-5.08m6.63 4.21c-0.52 0-0.92 0.14-1.22 0.42-0.29 0.27-0.44 0.65-0.44 1.13 0 0.49 0.15 0.87 0.44 1.14 0.3 0.28 0.7 0.42 1.22 0.42s0.92-0.14 1.22-0.42 0.45-0.66 0.45-1.14-0.15-0.86-0.45-1.13c-0.29-0.28-0.7-0.42-1.22-0.42m-1.08-0.46c-0.47-0.11-0.83-0.33-1.09-0.65s-0.39-0.71-0.39-1.17c0-0.64 0.23-1.14 0.68-1.52 0.46-0.37 1.09-0.55 1.88-0.55 0.8 0 1.43 0.18 1.88 0.55 0.46 0.38 0.68 0.88 0.68 1.52 0 0.46-0.13 0.85-0.39 1.17s-0.62 0.54-1.08 0.65c0.52 0.12 0.93 0.36 1.22 0.71 0.29 0.36 0.44 0.79 0.44 1.3 0 0.78-0.24 1.38-0.71 1.79-0.48 0.42-1.16 0.63-2.04 0.63s-1.56-0.21-2.04-0.63c-0.47-0.41-0.71-1.01-0.71-1.79 0-0.51 0.15-0.94 0.44-1.3 0.29-0.35 0.7-0.59 1.23-0.71m-0.4-1.71c0 0.41 0.13 0.74 0.38 0.97 0.27 0.23 0.63 0.35 1.1 0.35s0.83-0.12 1.09-0.35c0.27-0.23 0.4-0.56 0.4-0.97 0-0.42-0.13-0.74-0.4-0.98-0.26-0.23-0.62-0.34-1.09-0.34s-0.83 0.11-1.1 0.34c-0.25 0.24-0.38 0.56-0.38 0.98m6.98 5.08v3.19h-0.99v-8.31h0.99v0.92c0.21-0.36 0.47-0.63 0.78-0.8 0.32-0.17 0.7-0.26 1.14-0.26 0.73 0 1.33 0.29 1.78 0.87 0.46 0.58 0.69 1.34 0.69 2.29 0 0.94-0.23 1.71-0.69 2.29-0.45 0.58-1.05 0.87-1.78 0.87-0.44 0-0.82-0.09-1.14-0.26-0.31-0.18-0.57-0.44-0.78-0.8m3.36-2.1c0-0.73-0.15-1.3-0.45-1.71-0.3-0.42-0.71-0.62-1.23-0.62s-0.93 0.2-1.23 0.62c-0.3 0.41-0.45 0.98-0.45 1.71 0 0.72 0.15 1.3 0.45 1.71s0.71 0.62 1.23 0.62 0.93-0.21 1.23-0.62 0.45-0.99 0.45-1.71m7.67-3.02l-2.18 2.93 2.29 3.09h-1.17l-1.75-2.36-1.75 2.36h-1.16l2.33-3.15-2.13-2.87h1.16l1.6 2.15 1.59-2.15h1.17"/>
    <path id="text3262" d="m675.46 603.68c0.52 0.11 0.93 0.34 1.22 0.69s0.44 0.78 0.44 1.3c0 0.79-0.27 1.4-0.82 1.84-0.54 0.43-1.32 0.65-2.32 0.65-0.34 0-0.68-0.04-1.04-0.11-0.36-0.06-0.72-0.16-1.1-0.29v-1.05c0.3 0.18 0.63 0.31 0.99 0.4 0.35 0.09 0.73 0.13 1.12 0.13 0.68 0 1.2-0.13 1.55-0.4 0.36-0.27 0.54-0.66 0.54-1.17 0-0.47-0.17-0.84-0.5-1.11s-0.79-0.4-1.38-0.4h-0.94v-0.89h0.98c0.53 0 0.94-0.11 1.23-0.32 0.28-0.21 0.42-0.52 0.42-0.92 0-0.41-0.15-0.73-0.44-0.95s-0.71-0.33-1.25-0.33c-0.3 0-0.62 0.03-0.96 0.1-0.34 0.06-0.71 0.16-1.12 0.3v-0.97c0.41-0.11 0.8-0.2 1.15-0.26 0.37-0.06 0.71-0.08 1.02-0.08 0.83 0 1.48 0.18 1.96 0.56 0.48 0.37 0.72 0.88 0.72 1.51 0 0.45-0.13 0.82-0.38 1.13-0.26 0.31-0.62 0.52-1.09 0.64m4.65 3.41h3.79v0.91h-5.09v-0.91c0.41-0.43 0.97-1 1.68-1.72s1.16-1.18 1.34-1.39c0.35-0.39 0.59-0.72 0.73-0.99s0.21-0.53 0.21-0.8c0-0.42-0.15-0.77-0.45-1.04s-0.69-0.4-1.17-0.4c-0.34 0-0.7 0.06-1.08 0.18-0.37 0.11-0.78 0.29-1.21 0.53v-1.09c0.44-0.18 0.85-0.31 1.23-0.4s0.72-0.13 1.04-0.13c0.83 0 1.49 0.2 1.99 0.62 0.49 0.41 0.74 0.97 0.74 1.66 0 0.33-0.06 0.65-0.19 0.94-0.12 0.3-0.35 0.64-0.67 1.05-0.09 0.1-0.38 0.4-0.85 0.9-0.48 0.49-1.16 1.19-2.04 2.08m6.89 0.01v3.19h-0.99v-8.31h0.99v0.92c0.21-0.36 0.47-0.63 0.78-0.8 0.32-0.17 0.7-0.26 1.14-0.26 0.73 0 1.33 0.29 1.78 0.87 0.46 0.58 0.69 1.34 0.69 2.29 0 0.94-0.23 1.71-0.69 2.29-0.45 0.58-1.05 0.87-1.78 0.87-0.44 0-0.82-0.09-1.14-0.26-0.31-0.18-0.57-0.44-0.78-0.8m3.36-2.1c0-0.73-0.15-1.3-0.45-1.71-0.3-0.42-0.71-0.62-1.23-0.62s-0.93 0.2-1.23 0.62c-0.3 0.41-0.45 0.98-0.45 1.71 0 0.72 0.15 1.3 0.45 1.71s0.71 0.62 1.23 0.62 0.93-0.21 1.23-0.62 0.45-0.99 0.45-1.71m7.67-3.02l-2.18 2.93 2.29 3.09h-1.17l-1.75-2.36-1.75 2.36h-1.16l2.33-3.15-2.13-2.87h1.16l1.6 2.15 1.59-2.15h1.17"/>
    <path id="rect3273" d="m44 59h314c7.2 0 13 5.129 13 11.5v1c0 6.371-5.8 11.5-13 11.5h-314c-7.202 0-13-5.129-13-11.5v-1c0-6.371 5.798-11.5 13-11.5z" fill="#646464"/>
    <path id="text3275" d="m47.469 66.891l-2.141 5.804h4.289l-2.148-5.804m-0.891-1.555h1.789l4.445 11.664h-1.64l-1.063-2.992h-5.257l-1.063 2.992h-1.664l4.453-11.664m7.719 8.211v-5.297h1.437v5.242c0 0.828 0.162 1.451 0.485 1.867 0.323 0.412 0.807 0.618 1.453 0.618 0.776 0 1.388-0.248 1.836-0.743 0.453-0.494 0.679-1.169 0.68-2.023v-4.961h1.437v8.75h-1.437v-1.344c-0.349 0.532-0.756 0.927-1.219 1.188-0.459 0.255-0.992 0.383-1.602 0.383-1.005 0-1.768-0.313-2.289-0.938s-0.781-1.539-0.781-2.742m11.726-7.781v2.484h2.961v1.117h-2.961v4.75c0 0.714 0.097 1.172 0.289 1.375 0.198 0.203 0.597 0.305 1.196 0.305h1.476v1.203h-1.476c-1.11 0-1.875-0.206-2.297-0.617-0.422-0.417-0.633-1.172-0.633-2.266v-4.75h-1.055v-1.117h1.055v-2.484h1.445m12.133 5.953v5.281h-1.437v-5.234c0-0.828-0.162-1.448-0.485-1.86-0.323-0.411-0.807-0.617-1.453-0.617-0.776 0-1.388 0.247-1.836 0.742s-0.672 1.17-0.672 2.024v4.945h-1.445v-12.156h1.445v4.765c0.344-0.526 0.748-0.919 1.211-1.179 0.469-0.261 1.008-0.391 1.618-0.391 1.005 0 1.765 0.313 2.281 0.938 0.515 0.619 0.773 1.533 0.773 2.742m6.274-2.461c-0.771 0-1.381 0.302-1.828 0.906-0.448 0.599-0.672 1.422-0.672 2.469s0.221 1.872 0.664 2.476c0.448 0.599 1.06 0.899 1.836 0.899 0.765 0 1.372-0.302 1.82-0.906 0.448-0.605 0.672-1.428 0.672-2.469 0-1.037-0.224-1.857-0.672-2.461-0.448-0.609-1.055-0.914-1.82-0.914m0-1.219c1.25 0 2.231 0.406 2.945 1.219 0.714 0.812 1.07 1.937 1.07 3.375 0 1.432-0.356 2.557-1.07 3.375-0.714 0.812-1.695 1.219-2.945 1.219-1.256 0-2.24-0.407-2.953-1.219-0.709-0.818-1.063-1.943-1.063-3.375 0-1.438 0.354-2.563 1.063-3.375 0.713-0.813 1.697-1.219 2.953-1.219m11.461 1.555c-0.162-0.094-0.339-0.162-0.532-0.203-0.187-0.047-0.395-0.071-0.625-0.071-0.812 0-1.437 0.266-1.875 0.797-0.432 0.526-0.648 1.284-0.648 2.274v4.609h-1.445v-8.75h1.445v1.359c0.302-0.531 0.695-0.924 1.18-1.179 0.484-0.261 1.073-0.391 1.765-0.391 0.099 0 0.209 0.008 0.328 0.023 0.12 0.011 0.253 0.029 0.399 0.055l0.008 1.477m13.889 2.125v5.281h-1.44v-5.234c0-0.828-0.16-1.448-0.48-1.86-0.32-0.411-0.81-0.617-1.45-0.617-0.78 0-1.39 0.247-1.84 0.742s-0.67 1.17-0.67 2.024v4.945h-1.45v-8.75h1.45v1.359c0.34-0.526 0.75-0.919 1.21-1.179 0.47-0.261 1.01-0.391 1.62-0.391 1 0 1.76 0.313 2.28 0.938 0.51 0.619 0.77 1.533 0.77 2.742m6.86 0.883c-1.16 0-1.97 0.132-2.41 0.398-0.45 0.266-0.68 0.719-0.68 1.359 0 0.511 0.17 0.917 0.5 1.219 0.34 0.297 0.8 0.445 1.38 0.445 0.8 0 1.43-0.281 1.91-0.843 0.49-0.568 0.73-1.321 0.73-2.258v-0.32h-1.43m2.87-0.594v4.992h-1.44v-1.328c-0.33 0.531-0.74 0.924-1.23 1.18-0.49 0.25-1.08 0.375-1.79 0.375-0.9 0-1.61-0.25-2.14-0.75-0.53-0.506-0.79-1.18-0.79-2.024 0-0.984 0.33-1.726 0.98-2.226 0.66-0.5 1.65-0.75 2.95-0.75h2.02v-0.141c0-0.662-0.22-1.172-0.66-1.531-0.43-0.365-1.04-0.547-1.82-0.547-0.5 0-0.99 0.06-1.47 0.18-0.47 0.119-0.92 0.299-1.36 0.539v-1.329c0.52-0.203 1.03-0.354 1.53-0.453 0.49-0.104 0.98-0.156 1.44-0.156 1.27 0 2.22 0.328 2.84 0.984 0.63 0.657 0.94 1.651 0.94 2.985m9.78-2.078c0.36-0.646 0.79-1.123 1.29-1.43s1.09-0.461 1.76-0.461c0.92 0 1.62 0.32 2.11 0.961 0.5 0.635 0.75 1.542 0.75 2.719v5.281h-1.45v-5.234c0-0.839-0.15-1.461-0.45-1.868-0.29-0.406-0.75-0.609-1.35-0.609-0.75 0-1.34 0.247-1.77 0.742s-0.65 1.17-0.65 2.024v4.945h-1.44v-5.234c0-0.844-0.15-1.467-0.45-1.868-0.3-0.406-0.75-0.609-1.37-0.609-0.74 0-1.32 0.25-1.75 0.75-0.44 0.495-0.65 1.167-0.65 2.016v4.945h-1.45v-8.75h1.45v1.359c0.33-0.536 0.72-0.932 1.18-1.187s1-0.383 1.63-0.383c0.64 0 1.17 0.162 1.62 0.484 0.44 0.323 0.78 0.792 0.99 1.407m16.26 2.336v0.703h-6.6c0.06 0.989 0.35 1.745 0.89 2.265 0.53 0.516 1.28 0.774 2.23 0.774 0.55 0 1.09-0.068 1.6-0.203 0.52-0.136 1.04-0.339 1.55-0.61v1.36c-0.52 0.218-1.05 0.385-1.59 0.5-0.54 0.114-1.09 0.172-1.65 0.172-1.39 0-2.5-0.407-3.32-1.219-0.81-0.813-1.21-1.912-1.21-3.297 0-1.432 0.38-2.568 1.15-3.406 0.78-0.844 1.82-1.266 3.13-1.266 1.18 0 2.11 0.38 2.79 1.141 0.69 0.755 1.03 1.784 1.03 3.086m-1.43-0.422c-0.01-0.787-0.23-1.414-0.67-1.883-0.42-0.469-0.99-0.703-1.7-0.703-0.8 0-1.45 0.226-1.93 0.68-0.48 0.453-0.75 1.091-0.83 1.914l5.13-0.008" fill="#eee"/>
    <g id="g3279" transform="translate(364,-427)">
      <rect id="rect3281" rx="18" ry="14" height="62" width="320" y="448" x="30" fill="#626262"/>
      <rect id="rect3283" rx="19" ry="13" height="60" width="318" y="449" x="31" fill="#b3b3b3"/>
    </g>
    <rect id="rect3287" rx="14" ry="14" height="156" width="330" stroke="#626262" stroke-dasharray="2, 4" y="555" x="382" stroke-width="2" fill="none"/>
    <rect id="rect3289" height="128" width="128" y="563" x="390" fill="#b3b3b3"/>
    <rect id="rect3291" height="64" width="64" y="563" x="532" fill="#b3b3b3"/>
    <rect id="rect3293" height="48" width="48" y="563" x="610" fill="#b3b3b3"/>
    <rect id="rect3295" height="32" width="32" y="563.09" x="672" fill="#b3b3b3"/>
    <rect id="rect3297" height="22" width="22" y="654" x="532" fill="#b3b3b3"/>
    <rect id="rect3299" height="16" width="16" y="660" x="567" fill="#b3b3b3"/>
    <path id="text3301" d="m36.005 1018c-0.799 0-1.352 0.1-1.66 0.2-0.308 0.2-0.462 0.5-0.462 1 0 0.3 0.115 0.6 0.344 0.8 0.233 0.2 0.548 0.3 0.945 0.3 0.548 0 0.987-0.2 1.316-0.6 0.333-0.3 0.5-0.9 0.5-1.5v-0.2h-0.983m1.971-0.4v3.4h-0.988v-0.9c-0.226 0.4-0.507 0.6-0.843 0.8-0.337 0.2-0.749 0.3-1.236 0.3-0.616 0-1.106-0.2-1.471-0.6-0.362-0.3-0.543-0.8-0.543-1.4s0.226-1.1 0.677-1.5c0.455-0.3 1.131-0.5 2.03-0.5h1.386v-0.1c0-0.4-0.151-0.8-0.451-1-0.298-0.3-0.717-0.4-1.257-0.4-0.344 0-0.679 0-1.005 0.1-0.325 0.1-0.639 0.2-0.94 0.4v-0.9c0.362-0.2 0.713-0.3 1.053-0.4 0.34 0 0.672-0.1 0.994-0.1 0.87 0 1.52 0.3 1.95 0.7 0.429 0.5 0.644 1.2 0.644 2.1m6-1.7v-3.3h0.988v8.4h-0.988v-0.9c-0.208 0.4-0.471 0.6-0.79 0.8-0.315 0.2-0.695 0.3-1.139 0.3-0.727 0-1.319-0.3-1.777-0.9-0.455-0.6-0.683-1.4-0.683-2.3s0.228-1.7 0.683-2.3c0.458-0.6 1.05-0.9 1.777-0.9 0.444 0 0.824 0.1 1.139 0.3 0.319 0.2 0.582 0.4 0.79 0.8m-3.368 2.1c0 0.7 0.149 1.3 0.446 1.7 0.3 0.4 0.712 0.6 1.235 0.6s0.935-0.2 1.235-0.6c0.301-0.4 0.452-1 0.452-1.7s-0.151-1.3-0.452-1.7c-0.3-0.4-0.712-0.6-1.235-0.6s-0.935 0.2-1.235 0.6c-0.297 0.4-0.446 1-0.446 1.7m10.35-2.1v-3.3h0.988v8.4h-0.988v-0.9c-0.208 0.4-0.471 0.6-0.79 0.8-0.315 0.2-0.694 0.3-1.138 0.3-0.727 0-1.32-0.3-1.778-0.9-0.455-0.6-0.682-1.4-0.682-2.3s0.227-1.7 0.682-2.3c0.458-0.6 1.051-0.9 1.778-0.9 0.444 0 0.823 0.1 1.138 0.3 0.319 0.2 0.582 0.4 0.79 0.8m-3.368 2.1c0 0.7 0.149 1.3 0.446 1.7 0.301 0.4 0.713 0.6 1.235 0.6 0.523 0 0.935-0.2 1.236-0.6s0.451-1 0.451-1.7-0.15-1.3-0.451-1.7-0.713-0.6-1.236-0.6c-0.522 0-0.934 0.2-1.235 0.6-0.297 0.4-0.446 1-0.446 1.7m6.392-3h0.988v6h-0.988v-6m0-2.4h0.988v1.3h-0.988v-1.3m4.028 0.7v1.7h2.036v0.8h-2.036v3.2c0 0.5 0.066 0.8 0.199 1 0.136 0.1 0.41 0.2 0.822 0.2h1.015v0.8h-1.015c-0.763 0-1.289-0.1-1.579-0.4s-0.435-0.8-0.435-1.6v-3.2h-0.725v-0.8h0.725v-1.7h0.993m3.341 1.7h0.988v6h-0.988v-6m0-2.4h0.988v1.3h-0.988v-1.3m5.382 3.1c-0.53 0-0.949 0.2-1.257 0.6s-0.462 1-0.462 1.7 0.152 1.3 0.457 1.7c0.308 0.4 0.728 0.6 1.262 0.6 0.526 0 0.943-0.2 1.251-0.6s0.462-1 0.462-1.7-0.154-1.3-0.462-1.7-0.725-0.6-1.251-0.6m0-0.9c0.859 0 1.534 0.3 2.025 0.9 0.49 0.5 0.736 1.3 0.736 2.3s-0.246 1.8-0.736 2.3c-0.491 0.6-1.166 0.9-2.025 0.9-0.863 0-1.54-0.3-2.03-0.9-0.487-0.5-0.731-1.3-0.731-2.3s0.244-1.8 0.731-2.3c0.49-0.6 1.167-0.9 2.03-0.9m9.394 2.6v3.6h-0.988v-3.6c0-0.6-0.111-1-0.333-1.3s-0.555-0.4-0.999-0.4c-0.534 0-0.955 0.2-1.263 0.5s-0.461 0.8-0.461 1.4v3.4h-0.994v-6h0.994v0.9c0.236-0.3 0.513-0.6 0.832-0.8 0.322-0.2 0.693-0.3 1.112-0.3 0.691 0 1.214 0.3 1.568 0.7 0.355 0.4 0.532 1 0.532 1.9m4.716 0.6c-0.799 0-1.352 0.1-1.66 0.2-0.308 0.2-0.462 0.5-0.462 1 0 0.3 0.115 0.6 0.344 0.8 0.233 0.2 0.548 0.3 0.945 0.3 0.548 0 0.987-0.2 1.316-0.6 0.333-0.3 0.5-0.9 0.5-1.5v-0.2h-0.983m1.971-0.4v3.4h-0.988v-0.9c-0.226 0.4-0.507 0.6-0.844 0.8-0.336 0.2-0.748 0.3-1.235 0.3-0.616 0-1.106-0.2-1.472-0.6-0.361-0.3-0.542-0.8-0.542-1.4s0.225-1.1 0.677-1.5c0.454-0.3 1.131-0.5 2.03-0.5h1.386v-0.1c0-0.4-0.151-0.8-0.451-1-0.298-0.3-0.717-0.4-1.257-0.4-0.344 0-0.679 0-1.005 0.1s-0.639 0.2-0.94 0.4v-0.9c0.362-0.2 0.713-0.3 1.053-0.4 0.34 0 0.671-0.1 0.994-0.1 0.87 0 1.52 0.3 1.949 0.7 0.43 0.5 0.645 1.2 0.645 2.1m2.041-5h0.988v8.4h-0.988v-8.4m9.287 5.4c-0.799 0-1.352 0.1-1.66 0.2-0.308 0.2-0.462 0.5-0.462 1 0 0.3 0.115 0.6 0.344 0.8 0.233 0.2 0.548 0.3 0.945 0.3 0.548 0 0.987-0.2 1.316-0.6 0.333-0.3 0.5-0.9 0.5-1.5v-0.2h-0.983m1.971-0.4v3.4h-0.988v-0.9c-0.226 0.4-0.507 0.6-0.844 0.8-0.336 0.2-0.748 0.3-1.235 0.3-0.616 0-1.107-0.2-1.472-0.6-0.361-0.3-0.542-0.8-0.542-1.4s0.225-1.1 0.676-1.5c0.455-0.3 1.132-0.5 2.031-0.5h1.386v-0.1c0-0.4-0.151-0.8-0.452-1-0.297-0.3-0.716-0.4-1.256-0.4-0.344 0-0.679 0-1.005 0.1s-0.639 0.2-0.94 0.4v-0.9c0.362-0.2 0.713-0.3 1.053-0.4 0.34 0 0.671-0.1 0.994-0.1 0.87 0 1.52 0.3 1.949 0.7 0.43 0.5 0.645 1.2 0.645 2.1m5.527-1.7c-0.11-0.1-0.23-0.1-0.37-0.1-0.12-0.1-0.27-0.1-0.43-0.1-0.55 0-0.984 0.2-1.284 0.6-0.298 0.3-0.446 0.9-0.446 1.5v3.2h-0.994v-6h0.994v0.9c0.208-0.3 0.478-0.6 0.811-0.8 0.329-0.2 0.739-0.3 1.209-0.3 0.07 0 0.15 0 0.23 0.1h0.27l0.01 1m2.02-2.6v1.7h2.04v0.8h-2.04v3.2c0 0.5 0.07 0.8 0.2 1 0.14 0.1 0.41 0.2 0.83 0.2h1.01v0.8h-1.01c-0.77 0-1.29-0.1-1.58-0.4s-0.44-0.8-0.44-1.6v-3.2h-0.72v-0.8h0.72v-1.7h0.99m2.77 1.7h0.99l1.23 4.7 1.23-4.7h1.17l1.24 4.7 1.23-4.7h0.98l-1.57 6h-1.17l-1.29-4.9-1.3 4.9h-1.17l-1.57-6m11.91 0.7c-0.53 0-0.95 0.2-1.26 0.6s-0.46 1-0.46 1.7 0.15 1.3 0.46 1.7c0.3 0.4 0.72 0.6 1.26 0.6 0.52 0 0.94-0.2 1.25-0.6s0.46-1 0.46-1.7-0.15-1.3-0.46-1.7-0.73-0.6-1.25-0.6m0-0.9c0.86 0 1.53 0.3 2.02 0.9 0.49 0.5 0.74 1.3 0.74 2.3s-0.25 1.8-0.74 2.3c-0.49 0.6-1.16 0.9-2.02 0.9s-1.54-0.3-2.03-0.9c-0.49-0.5-0.73-1.3-0.73-2.3s0.24-1.8 0.73-2.3c0.49-0.6 1.17-0.9 2.03-0.9m7.88 1.1c-0.11-0.1-0.23-0.1-0.37-0.1-0.13-0.1-0.27-0.1-0.43-0.1-0.56 0-0.99 0.2-1.29 0.6-0.29 0.3-0.44 0.9-0.44 1.5v3.2h-1v-6h1v0.9c0.21-0.3 0.48-0.6 0.81-0.8s0.74-0.3 1.21-0.3c0.07 0 0.15 0 0.23 0.1h0.27l0.01 1m1.01-3.3h0.99v5l2.95-2.6h1.26l-3.19 2.8 3.33 3.2h-1.29l-3.06-2.9v2.9h-0.99v-8.4"/>
    <path id="text3322" d="m411.08 29.599v1.144c-0.36-0.34-0.75-0.595-1.17-0.763-0.41-0.168-0.85-0.252-1.31-0.252-0.92 0-1.62 0.281-2.11 0.843-0.48 0.558-0.73 1.368-0.73 2.428 0 1.056 0.25 1.865 0.73 2.427 0.49 0.559 1.19 0.838 2.11 0.838 0.46 0 0.9-0.084 1.31-0.252 0.42-0.169 0.81-0.423 1.17-0.763v1.133c-0.38 0.258-0.78 0.451-1.2 0.58-0.43 0.129-0.87 0.194-1.35 0.194-1.21 0-2.17-0.371-2.86-1.112-0.7-0.745-1.05-1.76-1.05-3.045 0-1.29 0.35-2.305 1.05-3.046 0.69-0.745 1.65-1.117 2.86-1.117 0.48 0 0.93 0.064 1.36 0.193 0.42 0.126 0.82 0.315 1.19 0.57m3.98 2.078c-0.53 0-0.95 0.208-1.26 0.623-0.31 0.412-0.46 0.978-0.46 1.698 0 0.719 0.15 1.287 0.46 1.702 0.3 0.412 0.73 0.618 1.26 0.618s0.94-0.208 1.25-0.623c0.31-0.416 0.46-0.981 0.46-1.697 0-0.713-0.15-1.277-0.46-1.692-0.31-0.419-0.72-0.629-1.25-0.629m0-0.838c0.86 0 1.53 0.28 2.02 0.838 0.49 0.559 0.74 1.332 0.74 2.321 0 0.984-0.25 1.758-0.74 2.32-0.49 0.558-1.16 0.838-2.02 0.838s-1.54-0.28-2.03-0.838c-0.49-0.562-0.73-1.336-0.73-2.32 0-0.989 0.24-1.762 0.73-2.321 0.49-0.558 1.17-0.838 2.03-0.838m9.08 1.3c0.24-0.444 0.54-0.771 0.88-0.983 0.35-0.211 0.75-0.317 1.22-0.317 0.62 0 1.11 0.221 1.45 0.661 0.34 0.437 0.51 1.06 0.51 1.869v3.631h-1v-3.599c0-0.576-0.1-1.004-0.3-1.283-0.21-0.28-0.52-0.419-0.94-0.419-0.51 0-0.91 0.17-1.21 0.51s-0.45 0.804-0.45 1.391v3.4h-0.99v-3.599c0-0.58-0.1-1.008-0.31-1.283-0.2-0.28-0.52-0.419-0.94-0.419-0.51 0-0.91 0.172-1.21 0.515-0.29 0.341-0.44 0.802-0.44 1.386v3.4h-0.99v-6.016h0.99v0.935c0.22-0.369 0.49-0.641 0.81-0.816 0.31-0.176 0.69-0.264 1.12-0.264 0.44 0 0.81 0.111 1.11 0.333 0.31 0.222 0.54 0.545 0.69 0.967m10.72 0c0.24-0.444 0.54-0.771 0.88-0.983 0.35-0.211 0.75-0.317 1.22-0.317 0.62 0 1.11 0.221 1.45 0.661 0.34 0.437 0.51 1.06 0.51 1.869v3.631h-1v-3.599c0-0.576-0.1-1.004-0.3-1.283-0.21-0.28-0.52-0.419-0.94-0.419-0.51 0-0.91 0.17-1.21 0.51s-0.45 0.804-0.45 1.391v3.4h-0.99v-3.599c0-0.58-0.1-1.008-0.31-1.283-0.2-0.28-0.52-0.419-0.94-0.419-0.51 0-0.91 0.172-1.2 0.515-0.3 0.341-0.45 0.802-0.45 1.386v3.4h-0.99v-6.016h0.99v0.935c0.22-0.369 0.5-0.641 0.81-0.816 0.32-0.176 0.69-0.264 1.12-0.264 0.44 0 0.81 0.111 1.11 0.333 0.31 0.222 0.54 0.545 0.69 0.967m11.18 1.606v0.484h-4.54c0.04 0.68 0.24 1.199 0.61 1.557 0.37 0.355 0.88 0.532 1.53 0.532 0.38 0 0.75-0.047 1.11-0.14 0.35-0.093 0.71-0.233 1.06-0.419v0.935c-0.36 0.15-0.72 0.265-1.09 0.344-0.37 0.078-0.75 0.118-1.14 0.118-0.95 0-1.72-0.28-2.28-0.838-0.56-0.559-0.84-1.314-0.84-2.267 0-0.984 0.27-1.765 0.8-2.342 0.53-0.58 1.25-0.87 2.15-0.87 0.81 0 1.45 0.262 1.92 0.785 0.47 0.519 0.71 1.226 0.71 2.121m-0.99-0.29c-0.01-0.541-0.16-0.972-0.46-1.294-0.29-0.323-0.68-0.484-1.17-0.484-0.55 0-0.99 0.156-1.32 0.468-0.33 0.311-0.52 0.75-0.57 1.315l3.52-0.005m7.61-0.086v3.631h-0.99v-3.599c0-0.569-0.11-0.995-0.33-1.278s-0.55-0.424-1-0.424c-0.53 0-0.95 0.17-1.26 0.51s-0.46 0.804-0.46 1.391v3.4h-1v-6.016h1v0.935c0.23-0.362 0.51-0.632 0.83-0.811s0.69-0.269 1.11-0.269c0.69 0 1.22 0.215 1.57 0.645 0.35 0.426 0.53 1.054 0.53 1.885m2.96-4.093v1.708h2.04v0.768h-2.04v3.266c0 0.491 0.07 0.806 0.2 0.945 0.14 0.14 0.41 0.21 0.82 0.21h1.02v0.827h-1.02c-0.76 0-1.29-0.141-1.58-0.424-0.29-0.287-0.43-0.806-0.43-1.558v-3.266h-0.73v-0.768h0.73v-1.708h0.99m7.18 1.886v0.934c-0.28-0.143-0.57-0.25-0.87-0.322s-0.62-0.107-0.94-0.107c-0.49 0-0.86 0.075-1.1 0.225-0.25 0.15-0.37 0.376-0.37 0.677 0 0.229 0.09 0.41 0.26 0.542 0.18 0.129 0.53 0.253 1.06 0.371l0.34 0.075c0.7 0.151 1.2 0.364 1.49 0.639 0.3 0.272 0.45 0.654 0.45 1.144 0 0.559-0.22 1.001-0.67 1.327-0.44 0.326-1.04 0.489-1.82 0.489-0.32 0-0.66-0.032-1.01-0.097-0.34-0.061-0.71-0.154-1.1-0.279v-1.021c0.37 0.19 0.73 0.333 1.08 0.43 0.36 0.093 0.71 0.14 1.05 0.14 0.47 0 0.83-0.079 1.08-0.237 0.25-0.161 0.37-0.386 0.37-0.676 0-0.269-0.09-0.475-0.27-0.618s-0.57-0.281-1.19-0.414l-0.34-0.08c-0.61-0.129-1.05-0.326-1.33-0.591-0.27-0.269-0.41-0.636-0.41-1.101 0-0.566 0.21-1.003 0.61-1.311s0.97-0.462 1.7-0.462c0.37 0 0.71 0.027 1.04 0.081 0.32 0.054 0.62 0.134 0.89 0.242m2.15 4.474h1.13v1.364h-1.13v-1.364m0-4.324h1.13v1.364h-1.13v-1.364"/>
  </g>
  <metadata>
    <rdf:RDF>
      <cc:Work>
        <dc:format>image/svg+xml</dc:format>
        <dc:type rdf:resource="http://purl.org/dc/dcmitype/StillImage"/>
        <cc:license rdf:resource="http://creativecommons.org/licenses/publicdomain/"/>
        <dc:publisher>
          <cc:Agent rdf:about="http://openclipart.org/">
            <dc:title>Openclipart</dc:title>
          </cc:Agent>
        </dc:publisher>
        <dc:title>Logo Submission Form Sheet</dc:title>
        <dc:date>2008-11-06T00:01:01</dc:date>
        <dc:description>This sheet is based on Branko Vukelic's (aka foxbunny) awesome logo sheet created for the Arch Linux logo competition. http://dev.archlinux.org/~travis/logo-contest/submission-blank.png&#xD;\n&#xD;\nIf you want to do him a favor, attribute him whenever you use/distribute this sheet :) &#xD;\n&#xD;\nI hope it will help you in creating awesome background-neutral art! ;)&#xD;\n&#xD;\nYou can read a bit more on this at http://fgl.tumblr.com/post/58215204/i-finished-that-logo-testing-sheet-to-be-honest</dc:description>
        <dc:source>http://openclipart.org/detail/19988/logo-submission-form-sheet-by-qubodup-19988</dc:source>
        <dc:creator>
          <cc:Agent>
            <dc:title>qubodup</dc:title>
          </cc:Agent>
        </dc:creator>
        <dc:subject>
          <rdf:Bag>
            <rdf:li>aid</rdf:li>
            <rdf:li>cheat</rdf:li>
            <rdf:li>clip art</rdf:li>
            <rdf:li>clipart</rdf:li>
            <rdf:li>design</rdf:li>
            <rdf:li>grey</rdf:li>
            <rdf:li>image</rdf:li>
            <rdf:li>logo</rdf:li>
            <rdf:li>media</rdf:li>
            <rdf:li>neutral</rdf:li>
            <rdf:li>png</rdf:li>
            <rdf:li>public domain</rdf:li>
            <rdf:li>sheet</rdf:li>
            <rdf:li>support</rdf:li>
            <rdf:li>svg</rdf:li>
            <rdf:li>test</rdf:li>
          </rdf:Bag>
        </dc:subject>
      </cc:Work>
      <cc:License rdf:about="http://creativecommons.org/licenses/publicdomain/">
        <cc:permits rdf:resource="http://creativecommons.org/ns#Reproduction"/>
        <cc:permits rdf:resource="http://creativecommons.org/ns#Distribution"/>
        <cc:permits rdf:resource="http://creativecommons.org/ns#DerivativeWorks"/>
      </cc:License>
    </rdf:RDF>
  </metadata>
</svg>
